<?xml version="1.0" encoding="utf-8"?>
<!-- Generator: Adobe Illustrator 16.0.0, SVG Export Plug-In . SVG Version: 6.00 Build 0)  -->
<!DOCTYPE svg PUBLIC "-//W3C//DTD SVG 1.1//EN" "http://www.w3.org/Graphics/SVG/1.1/DTD/svg11.dtd">
<svg version="1.1" id="Layer_1" xmlns="http://www.w3.org/2000/svg" xmlns:xlink="http://www.w3.org/1999/xlink" x="0px" y="0px"
	 width="612px" height="792px" viewBox="0 0 612 792" enable-background="new 0 0 612 792" xml:space="preserve">
<radialGradient id="SVGID_1_" cx="367.4932" cy="223.8906" r="1.6386" gradientUnits="userSpaceOnUse">
	<stop  offset="0" style="stop-color:#000000"/>
	<stop  offset="1" style="stop-color:#FFFFFF"/>
</radialGradient>
<ellipse fill="url(#SVGID_1_)" cx="367.493" cy="223.891" rx="2.317" ry="0"/>
<g enable-background="new    ">
	<defs>
		<path id="SVGID_2_" enable-background="new    " d="M346.643,234.884c17.392,47.375-5.635,105.282-60.494,140.918
			C341.008,340.166,364.034,282.258,346.643,234.884c3.77,10.421,5.092,16.858,6.371,23.083c1.164,5.666,2.033,13.366,2.309,19.144
			c0.297,6.257,0.24,14.645-0.396,20.876c-0.439,4.317-1.281,10.047-2.033,14.32c-0.494,2.821-1.406,6.534-2.117,9.309
			c-0.846,3.296-2.203,7.63-3.305,10.849c-0.959,2.804-2.371,6.498-3.557,9.214c-4.236,9.697-6.799,14.158-11.184,21.24
			c-1.189,1.92-2.855,4.432-4.203,6.242c-2.486,3.334-5.859,7.742-8.568,10.896c-1.324,1.539-3.117,3.568-4.551,5.006
			c-1.416,1.42-3.271,3.346-4.721,4.73c-1.439,1.379-3.426,3.143-4.904,4.48c-2.684,2.432-3.435,2.998-10.615,8.414
			c-1.67,1.262-4.013,2.785-5.76,3.939c-4.902,3.24-12.291,7.318-15.855,8.951c-2.213,1.014-5.128,2.451-7.398,3.33
			c-4.338,1.68-10.161,3.832-14.61,5.189c-2.825,0.861-6.646,1.842-9.532,2.471c-3.341,0.727-7.824,1.59-11.214,2.047
			c-2.694,0.361-6.293,0.83-9.006,0.996c-4.337,0.262-10.132,0.459-14.477,0.428c-5.962-0.045-13.905-0.84-19.798-1.752
			c-9.588-1.484-24.387-4.881-40.438-12.635c-6.054-2.924-13.75-7.584-19.366-11.281c-3.958-2.605-8.924-6.549-12.479-9.684
			c-5.271-4.646-11.784-11.426-16.398-16.727c-3.404-3.908-7.555-9.48-10.268-13.898c-3.323-5.414-7.636-12.742-10.229-18.542
			c-4.346-9.721-5.969-14.798-8.273-22.84c-1.832-6.395-3.319-15.184-4.129-21.787c-0.688-5.609-1.162-13.176-0.855-18.819
			c0.168-3.097,0.246-7.239,0.572-10.323c0.457-4.315,1.269-10.049,2.034-14.32c0.505-2.819,1.374-6.543,2.118-9.309
			c0.884-3.286,2.235-7.619,3.305-10.849c1.182-3.572,4.474-11.81,6.941-16.589c1.164-2.255,2.657-5.298,3.958-7.478
			c4.011-6.717,5.088-8.523,8.045-12.628c1.224-1.699,2.851-3.972,4.183-5.587c1.315-1.594,3.033-3.748,4.386-5.31
			c1.329-1.534,3.119-3.568,4.55-5.007c6.18-6.211,6.18-6.211,9.624-9.21c1.516-1.32,3.575-3.037,5.15-4.286
			c1.61-1.276,3.825-2.891,5.465-4.129c3.382-2.554,11.164-7.461,15.14-9.548c3.887-2.04,9.164-4.58,13.168-6.376
			c2.314-1.038,5.49-2.215,7.88-3.065c2.646-0.94,6.197-2.151,8.917-2.85c4.874-1.252,11.405-2.842,16.373-3.646
			c3.549-0.574,8.312-1.184,11.899-1.438c4.334-0.306,10.138-0.661,14.477-0.428c2.952,0.159,6.905,0.183,9.841,0.531
			c5.557,0.658,12.995,1.518,18.437,2.817c6.208,1.482,14.36,3.98,20.393,6.064c3.57,1.233,8.146,3.369,11.565,4.973
			c3.027,1.42,6.979,3.503,9.843,5.229c4.002,2.412,9.223,5.823,13.019,8.547c5.639,4.047,12.81,10.024,17.468,15.17
			c2.375,2.623,5.734,5.957,7.914,8.745c3.902,4.994,8.938,11.801,12.326,17.157c2.781,4.394,5.904,10.605,8.17,15.284
			C343.75,227.334,345.387,231.659,346.643,234.884z"/>
	</defs>
	<clipPath id="SVGID_3_">
		<use xlink:href="#SVGID_2_"  overflow="visible"/>
	</clipPath>
	<g clip-path="url(#SVGID_3_)" enable-background="new    ">
		<g>
			<path fill="none" stroke="#FFFFFF" stroke-width="0.25" stroke-miterlimit="10" d="M286.149,375.802
				c66.322-43.083,86.118-118.715,44.22-168.936c-16.629-45.299-83.871-47.097-150.188-4.017
				C222.077,253.07,269.52,330.5,286.149,375.802z"/>
			<path fill="none" stroke="#FFFFFF" stroke-width="0.25" stroke-miterlimit="10" d="M336.4,324.016
				c-8.393-22.864-42.332-23.771-75.805-2.027"/>
			<path fill="none" stroke="#FFFFFF" stroke-width="0.25" stroke-miterlimit="10" d="M352.264,263.411
				c-14.359-39.115-72.419-40.667-129.685-3.468"/>
			<path fill="none" stroke="#FFFFFF" stroke-width="0.25" stroke-miterlimit="10" d="M286.149,375.802
				c48.875-60.065,54.525-149.463,12.63-199.683"/>
			<path fill="none" stroke="#FFFFFF" stroke-width="0.25" stroke-miterlimit="10" d="M286.149,375.802
				c19.115-60.861,0.646-150.904-41.25-201.125"/>
		</g>
		<g>
			<path fill="none" stroke="#FFFFFF" stroke-width="0.25" stroke-miterlimit="10" d="M286.149,375.802
				C269.52,330.5,222.077,253.07,180.181,202.85c-66.318,43.081-106.6,114.726-89.971,160.024
				C132.106,413.095,219.827,418.886,286.149,375.802z"/>
			<path fill="none" stroke="#FFFFFF" stroke-width="0.25" stroke-miterlimit="10" d="M260.595,321.989
				c-33.473,21.744-53.804,57.907-45.411,80.77"/>
			<path fill="none" stroke="#FFFFFF" stroke-width="0.25" stroke-miterlimit="10" d="M222.579,259.942
				c-57.264,37.199-92.046,99.064-77.688,138.178"/>
			<path fill="none" stroke="#FFFFFF" stroke-width="0.25" stroke-miterlimit="10" d="M286.149,375.802
				c-47.833-17.371-120.568-72.164-162.464-122.384"/>
			<path fill="none" stroke="#FFFFFF" stroke-width="0.25" stroke-miterlimit="10" d="M286.149,375.802
				c-65.66,14.338-152.845-14.754-194.741-64.974"/>
		</g>
		<g>
			<path fill="none" stroke="#FFFFFF" stroke-width="0.25" stroke-miterlimit="10" d="M286.149,375.802
				c-66.322,43.084-154.043,37.293-195.939-12.928c16.629,45.301,83.871,47.098,150.189,4.018
				C282.295,417.112,302.78,421.104,286.149,375.802z"/>
			<path fill="none" stroke="#FFFFFF" stroke-width="0.25" stroke-miterlimit="10" d="M215.184,402.759
				c8.393,22.863,42.332,23.771,75.805,2.027"/>
			<path fill="none" stroke="#FFFFFF" stroke-width="0.25" stroke-miterlimit="10" d="M144.891,398.12
				c14.359,39.115,72.421,40.668,129.686,3.469"/>
			<path fill="none" stroke="#FFFFFF" stroke-width="0.25" stroke-miterlimit="10" d="M286.149,375.802
				c-48.873,60.066-122.452,68.041-164.348,17.82"/>
			<path fill="none" stroke="#FFFFFF" stroke-width="0.25" stroke-miterlimit="10" d="M286.149,375.802
				c-19.114,60.861-68.571,69.482-110.467,19.262"/>
		</g>
		<g>
			<path fill="none" stroke="#FFFFFF" stroke-width="0.25" stroke-miterlimit="10" d="M286.149,375.802
				c16.631,45.303-3.854,41.311-45.75-8.91c66.318-43.081,106.599-114.727,89.97-160.025
				C372.267,257.086,352.471,332.719,286.149,375.802z"/>
			<path fill="none" stroke="#FFFFFF" stroke-width="0.25" stroke-miterlimit="10" d="M290.989,404.786
				c33.474-21.744,53.804-57.907,45.412-80.77"/>
			<path fill="none" stroke="#FFFFFF" stroke-width="0.25" stroke-miterlimit="10" d="M274.577,401.589
				c57.263-37.199,92.047-99.064,77.687-138.178"/>
			<path fill="none" stroke="#FFFFFF" stroke-width="0.25" stroke-miterlimit="10" d="M286.149,375.802
				c47.833,17.373,52.642-9.258,10.746-59.479"/>
			<path fill="none" stroke="#FFFFFF" stroke-width="0.25" stroke-miterlimit="10" d="M286.149,375.802
				c65.66-14.336,84.92-66.668,43.023-116.888"/>
		</g>
		<g>
			<path fill="none" stroke="#FFFFFF" stroke-width="0.25" stroke-miterlimit="10" d="M330.369,206.866
				c-41.895-50.22-129.616-56.01-195.938-12.927c-16.63-45.302,3.854-41.31,45.75,8.911
				C246.499,159.769,313.74,161.567,330.369,206.866z"/>
			<path fill="none" stroke="#FFFFFF" stroke-width="0.25" stroke-miterlimit="10" d="M275.689,171.621
				c-14.358-39.115-72.42-40.667-129.685-3.468"/>
			<path fill="none" stroke="#FFFFFF" stroke-width="0.25" stroke-miterlimit="10" d="M298.779,176.119
				c-41.896-50.22-115.474-42.245-164.348,17.82"/>
			<path fill="none" stroke="#FFFFFF" stroke-width="0.25" stroke-miterlimit="10" d="M244.899,174.677
				c-41.896-50.22-91.354-41.6-110.468,19.262"/>
		</g>
		<g>
			<path fill="none" stroke="#FFFFFF" stroke-width="0.25" stroke-miterlimit="10" d="M180.181,202.85
				c-41.896-50.22-62.38-54.212-45.75-8.911C68.108,237.022,48.314,312.655,90.21,362.874
				C73.581,317.576,113.862,245.93,180.181,202.85z"/>
			<path fill="none" stroke="#FFFFFF" stroke-width="0.25" stroke-miterlimit="10" d="M146.004,168.152
				c-57.265,37.199-92.046,99.063-77.688,138.178"/>
			<path fill="none" stroke="#FFFFFF" stroke-width="0.25" stroke-miterlimit="10" d="M123.685,253.418
				c-41.896-50.22-37.088-76.851,10.746-59.479"/>
			<path fill="none" stroke="#FFFFFF" stroke-width="0.25" stroke-miterlimit="10" d="M91.408,310.828
				c-41.896-50.22-22.638-102.552,43.023-116.889"/>
		</g>
		<g>
			<path fill="none" stroke="#FFFFFF" stroke-width="0.25" stroke-miterlimit="10" d="M90.21,362.874
				c-41.896-50.219-22.102-125.852,44.221-168.935c16.63,45.301,64.073,122.732,105.968,172.953
				C174.081,409.972,106.839,408.175,90.21,362.874z"/>
			<path fill="none" stroke="#FFFFFF" stroke-width="0.25" stroke-miterlimit="10" d="M68.316,306.331
				c14.359,39.115,72.42,40.668,129.685,3.468"/>
			<path fill="none" stroke="#FFFFFF" stroke-width="0.25" stroke-miterlimit="10" d="M121.801,393.622
				c-41.896-50.219-36.245-139.618,12.629-199.683"/>
			<path fill="none" stroke="#FFFFFF" stroke-width="0.25" stroke-miterlimit="10" d="M175.682,395.063
				c-41.896-50.22-60.366-140.263-41.251-201.125"/>
		</g>
		<g>
			<path fill="none" stroke="#FFFFFF" stroke-width="0.25" stroke-miterlimit="10" d="M240.399,366.892
				c-41.896-50.22-89.338-127.651-105.968-172.953c66.322-43.083,154.043-37.293,195.938,12.927
				C346.998,252.165,306.717,323.811,240.399,366.892z"/>
			<path fill="none" stroke="#FFFFFF" stroke-width="0.25" stroke-miterlimit="10" d="M198.001,309.799
				c57.265-37.199,92.046-99.063,77.688-138.178"/>
			<path fill="none" stroke="#FFFFFF" stroke-width="0.25" stroke-miterlimit="10" d="M296.895,316.323
				c-41.896-50.22-114.631-105.012-162.464-122.384"/>
			<path fill="none" stroke="#FFFFFF" stroke-width="0.25" stroke-miterlimit="10" d="M329.172,258.914
				c-41.896-50.22-129.081-79.311-194.741-64.975"/>
		</g>
	</g>
	<path clip-path="url(#SVGID_3_)" fill="none" stroke="#FFFFFF" stroke-width="0.25" stroke-miterlimit="10" d="M346.643,234.884
		c17.392,47.375-5.635,105.282-60.494,140.918C341.008,340.166,364.034,282.258,346.643,234.884
		c3.77,10.421,5.092,16.858,6.371,23.083c1.164,5.666,2.033,13.366,2.309,19.144c0.297,6.257,0.24,14.645-0.396,20.876
		c-0.439,4.317-1.281,10.047-2.033,14.32c-0.494,2.821-1.406,6.534-2.117,9.309c-0.846,3.296-2.203,7.63-3.305,10.849
		c-0.959,2.804-2.371,6.498-3.557,9.214c-4.236,9.697-6.799,14.158-11.184,21.24c-1.189,1.92-2.855,4.432-4.203,6.242
		c-2.486,3.334-5.859,7.742-8.568,10.896c-1.324,1.539-3.117,3.568-4.551,5.006c-1.416,1.42-3.271,3.346-4.721,4.73
		c-1.439,1.379-3.426,3.143-4.904,4.48c-2.684,2.432-3.435,2.998-10.615,8.414c-1.67,1.262-4.013,2.785-5.76,3.939
		c-4.902,3.24-12.291,7.318-15.855,8.951c-2.213,1.014-5.128,2.451-7.398,3.33c-4.338,1.68-10.161,3.832-14.61,5.189
		c-2.825,0.861-6.646,1.842-9.532,2.471c-3.341,0.727-7.824,1.59-11.214,2.047c-2.694,0.361-6.293,0.83-9.006,0.996
		c-4.337,0.262-10.132,0.459-14.477,0.428c-5.962-0.045-13.905-0.84-19.798-1.752c-9.588-1.484-24.387-4.881-40.438-12.635
		c-6.054-2.924-13.75-7.584-19.366-11.281c-3.958-2.605-8.924-6.549-12.479-9.684c-5.271-4.646-11.784-11.426-16.398-16.727
		c-3.404-3.908-7.555-9.48-10.268-13.898c-3.323-5.414-7.636-12.742-10.229-18.542c-4.346-9.721-5.969-14.798-8.273-22.84
		c-1.832-6.395-3.319-15.184-4.129-21.787c-0.688-5.609-1.162-13.176-0.855-18.819c0.168-3.097,0.246-7.239,0.572-10.323
		c0.457-4.315,1.269-10.049,2.034-14.32c0.505-2.819,1.374-6.543,2.118-9.309c0.884-3.286,2.235-7.619,3.305-10.849
		c1.182-3.572,4.474-11.81,6.941-16.589c1.164-2.255,2.657-5.298,3.958-7.478c4.011-6.717,5.088-8.523,8.045-12.628
		c1.224-1.699,2.851-3.972,4.183-5.587c1.315-1.594,3.033-3.748,4.386-5.31c1.329-1.534,3.119-3.568,4.55-5.007
		c6.18-6.211,6.18-6.211,9.624-9.21c1.516-1.32,3.575-3.037,5.15-4.286c1.61-1.276,3.825-2.891,5.465-4.129
		c3.382-2.554,11.164-7.461,15.14-9.548c3.887-2.04,9.164-4.58,13.168-6.376c2.314-1.038,5.49-2.215,7.88-3.065
		c2.646-0.94,6.197-2.151,8.917-2.85c4.874-1.252,11.405-2.842,16.373-3.646c3.549-0.574,8.312-1.184,11.899-1.438
		c4.334-0.306,10.138-0.661,14.477-0.428c2.952,0.159,6.905,0.183,9.841,0.531c5.557,0.658,12.995,1.518,18.437,2.817
		c6.208,1.482,14.36,3.98,20.393,6.064c3.57,1.233,8.146,3.369,11.565,4.973c3.027,1.42,6.979,3.503,9.843,5.229
		c4.002,2.412,9.223,5.823,13.019,8.547c5.639,4.047,12.81,10.024,17.468,15.17c2.375,2.623,5.734,5.957,7.914,8.745
		c3.902,4.994,8.938,11.801,12.326,17.157c2.781,4.394,5.904,10.605,8.17,15.284C343.75,227.334,345.387,231.659,346.643,234.884z"
		/>
	<use xlink:href="#SVGID_2_"  overflow="visible" fill="none" stroke="#FFFFFF" stroke-miterlimit="10"/>
</g>
<g enable-background="new    ">
	<defs>
		<path id="SVGID_4_" enable-background="new    " d="M321.744,191.778c3.998,4.917,9.156,11.669,12.326,17.157
			c1.75,3.03,4.174,7.027,5.697,10.176c2.252,4.645,5.004,10.962,6.875,15.772c-3.633-9.899-9.031-19.338-16.273-28.018
			c-41.895-50.22-129.616-56.01-195.938-12.927c66.322-43.083,154.043-37.293,195.938,12.927
			c7.242,8.68,12.641,18.119,16.273,28.018c2.084,6.449,4.803,15.099,6.113,21.749c0.639,3.245,1.35,7.603,1.734,10.887
			c0.418,3.588,0.711,8.399,0.939,12.004c0.35,5.53,0.021,12.947-0.504,18.464c-0.553,5.832-1.756,13.575-3.08,19.281
			c-0.914,3.93-2.414,9.103-3.615,12.955c-0.783,2.509-2.043,5.783-2.99,8.234c-1.131,2.921-2.854,6.73-4.203,9.558
			c-1.174,2.457-2.855,5.676-4.199,8.043c-2.188,3.855-5.422,8.811-7.883,12.496c-1.25,1.871-3.098,4.242-4.477,6.02
			c-5.557,7.17-11.914,13.5-13.789,15.217c-2.951,2.703-6.976,6.209-10.054,8.766c-1.574,1.311-3.765,2.947-5.445,4.117
			c-1.718,1.195-4.002,2.799-5.758,3.939c-1.803,1.168-4.254,2.65-6.096,3.754c-2.767,1.654-6.592,3.623-9.477,5.061
			c-2.064,1.029-4.875,2.285-7,3.186c-2.12,0.896-5.002,1.961-7.146,2.801c-2.182,0.855-5.179,1.748-7.411,2.457
			c-0.836,0.266-8.462,2.641-18.611,4.303c-11.183,1.83-20.734,1.875-21.135,1.877c-2.924,0.006-6.829,0.033-9.746-0.174
			c-4.601-0.322-10.724-0.955-15.292-1.59c-6.242-0.867-14.433-2.916-20.458-4.762c-5.698-1.746-13.126-4.646-18.521-7.178
			c-9.588-4.5-16.478-8.99-20.825-11.977c-5.695-3.91-12.726-9.918-17.834-14.57c-3.591-3.27-8.026-8.031-11.043-11.84
			c-4.385-5.533-9.897-13.201-13.576-19.229c-2.66-4.357-5.783-10.437-7.788-15.132c-2.452-5.742-5.5-13.535-7.04-19.586
			c-1.644-6.46-3.553-15.174-4.342-21.793c-1.289-10.804-1.089-19.343-0.943-22.512c0.246-5.347,0.796-12.487,1.74-17.756
			c0.511-2.853,1.163-6.666,1.848-9.481c0.955-3.92,2.319-9.134,3.615-12.955c0.844-2.489,2.005-5.797,2.991-8.234
			c1.174-2.904,2.791-6.762,4.203-9.559c1.227-2.43,2.814-5.7,4.199-8.044c1.139-1.928,2.625-4.518,3.823-6.41
			c1.258-1.986,2.977-4.611,4.361-6.511c1.233-1.693,2.845-3.978,4.176-5.595c1.314-1.596,3.028-3.755,4.38-5.319
			c1.357-1.57,3.221-3.617,4.648-5.124c7.488-7.905,14.817-13.541,14.817-13.541c3.294-2.506,7.756-5.761,11.202-8.054
			c1.788-1.19,4.254-2.649,6.096-3.754c0.891-0.534,2.104-1.2,3.011-1.707c3.83-2.14,9.151-4.594,13.148-6.405
			c2.191-0.993,5.201-2.119,7.463-2.937c2.426-0.877,5.676-2.021,8.169-2.683c4.844-1.287,11.348-2.854,16.268-3.809
			c3.122-0.605,7.339-1.105,10.501-1.437c2.742-0.288,6.416-0.463,9.168-0.626c3.832-0.227,8.96-0.066,12.796,0.092
			c2.979,0.123,6.936,0.559,9.904,0.844c4.736,0.454,11.028,1.499,15.621,2.739c5.644,1.524,13.194,3.546,18.641,5.669
			c6.173,2.406,14.349,5.912,19.989,9.387c3.3,2.033,7.744,4.678,10.943,6.867c2.835,1.94,6.516,4.682,9.152,6.885
			c2.668,2.23,6.208,5.239,8.681,7.686C314.152,183.356,318.68,188.01,321.744,191.778z"/>
	</defs>
	<clipPath id="SVGID_5_">
		<use xlink:href="#SVGID_4_"  overflow="visible"/>
	</clipPath>
	<g clip-path="url(#SVGID_5_)" enable-background="new    ">
		<g>
			<path fill="none" stroke="#FFFFFF" stroke-width="0.25" stroke-miterlimit="10" d="M286.149,375.802
				c66.322-43.083,86.118-118.715,44.22-168.936c-16.629-45.299-83.871-47.097-150.188-4.017
				C222.077,253.07,269.52,330.5,286.149,375.802z"/>
			<path fill="none" stroke="#FFFFFF" stroke-width="0.25" stroke-miterlimit="10" d="M352.264,263.411
				c-14.359-39.115-72.419-40.667-129.685-3.468"/>
			<path fill="none" stroke="#FFFFFF" stroke-width="0.25" stroke-miterlimit="10" d="M286.149,375.802
				c48.875-60.065,54.525-149.463,12.63-199.683"/>
			<path fill="none" stroke="#FFFFFF" stroke-width="0.25" stroke-miterlimit="10" d="M286.149,375.802
				c19.115-60.861,0.646-150.904-41.25-201.125"/>
		</g>
		<g>
			<path fill="none" stroke="#FFFFFF" stroke-width="0.25" stroke-miterlimit="10" d="M286.149,375.802
				C269.52,330.5,222.077,253.07,180.181,202.85c-66.318,43.081-106.6,114.726-89.971,160.024
				C132.106,413.095,219.827,418.886,286.149,375.802z"/>
			<path fill="none" stroke="#FFFFFF" stroke-width="0.25" stroke-miterlimit="10" d="M222.579,259.942
				c-57.264,37.199-92.046,99.064-77.688,138.178"/>
			<path fill="none" stroke="#FFFFFF" stroke-width="0.25" stroke-miterlimit="10" d="M286.149,375.802
				c-47.833-17.371-120.568-72.164-162.464-122.384"/>
			<path fill="none" stroke="#FFFFFF" stroke-width="0.25" stroke-miterlimit="10" d="M286.149,375.802
				c-65.66,14.338-152.845-14.754-194.741-64.974"/>
		</g>
		<g>
			<path fill="none" stroke="#FFFFFF" stroke-width="0.25" stroke-miterlimit="10" d="M286.149,375.802
				c-66.322,43.084-154.043,37.293-195.939-12.928c16.629,45.301,83.871,47.098,150.189,4.018
				C282.295,417.112,302.78,421.104,286.149,375.802z"/>
			<path fill="none" stroke="#FFFFFF" stroke-width="0.25" stroke-miterlimit="10" d="M144.891,398.12
				c14.359,39.115,72.421,40.668,129.686,3.469"/>
			<path fill="none" stroke="#FFFFFF" stroke-width="0.25" stroke-miterlimit="10" d="M286.149,375.802
				c-48.873,60.066-122.452,68.041-164.348,17.82"/>
			<path fill="none" stroke="#FFFFFF" stroke-width="0.25" stroke-miterlimit="10" d="M286.149,375.802
				c-19.114,60.861-68.571,69.482-110.467,19.262"/>
		</g>
		<g>
			<path fill="none" stroke="#FFFFFF" stroke-width="0.25" stroke-miterlimit="10" d="M286.149,375.802
				c16.631,45.303-3.854,41.311-45.75-8.91c66.318-43.081,106.599-114.727,89.97-160.025
				C372.267,257.086,352.471,332.719,286.149,375.802z"/>
			<path fill="none" stroke="#FFFFFF" stroke-width="0.25" stroke-miterlimit="10" d="M274.577,401.589
				c57.263-37.199,92.047-99.064,77.687-138.178"/>
			<path fill="none" stroke="#FFFFFF" stroke-width="0.25" stroke-miterlimit="10" d="M286.149,375.802
				c47.833,17.373,52.642-9.258,10.746-59.479"/>
			<path fill="none" stroke="#FFFFFF" stroke-width="0.25" stroke-miterlimit="10" d="M286.149,375.802
				c65.66-14.336,84.92-66.668,43.023-116.888"/>
		</g>
		<g>
			<path fill="none" stroke="#FFFFFF" stroke-width="0.25" stroke-miterlimit="10" d="M330.369,206.866
				c-41.895-50.22-129.616-56.01-195.938-12.927c-16.63-45.302,3.854-41.31,45.75,8.911
				C246.499,159.769,313.74,161.567,330.369,206.866z"/>
			<path fill="none" stroke="#FFFFFF" stroke-width="0.25" stroke-miterlimit="10" d="M275.689,171.621
				c-14.358-39.115-72.42-40.667-129.685-3.468"/>
			<path fill="none" stroke="#FFFFFF" stroke-width="0.25" stroke-miterlimit="10" d="M205.396,166.982
				c-8.393-22.864-42.333-23.771-75.805-2.027"/>
			<path fill="none" stroke="#FFFFFF" stroke-width="0.25" stroke-miterlimit="10" d="M298.779,176.119
				c-41.896-50.22-115.474-42.245-164.348,17.82"/>
			<path fill="none" stroke="#FFFFFF" stroke-width="0.25" stroke-miterlimit="10" d="M244.899,174.677
				c-41.896-50.22-91.354-41.6-110.468,19.262"/>
		</g>
		<g>
			<path fill="none" stroke="#FFFFFF" stroke-width="0.25" stroke-miterlimit="10" d="M180.181,202.85
				c-41.896-50.22-62.38-54.212-45.75-8.911C68.108,237.022,48.314,312.655,90.21,362.874
				C73.581,317.576,113.862,245.93,180.181,202.85z"/>
			<path fill="none" stroke="#FFFFFF" stroke-width="0.25" stroke-miterlimit="10" d="M146.004,168.152
				c-57.265,37.199-92.046,99.063-77.688,138.178"/>
			<path fill="none" stroke="#FFFFFF" stroke-width="0.25" stroke-miterlimit="10" d="M129.591,164.955
				c-33.473,21.744-53.805,57.906-45.412,80.77"/>
			<path fill="none" stroke="#FFFFFF" stroke-width="0.25" stroke-miterlimit="10" d="M123.685,253.418
				c-41.896-50.22-37.088-76.851,10.746-59.479"/>
			<path fill="none" stroke="#FFFFFF" stroke-width="0.25" stroke-miterlimit="10" d="M91.408,310.828
				c-41.896-50.22-22.638-102.552,43.023-116.889"/>
		</g>
		<g>
			<path fill="none" stroke="#FFFFFF" stroke-width="0.25" stroke-miterlimit="10" d="M90.21,362.874
				c-41.896-50.219-22.102-125.852,44.221-168.935c16.63,45.301,64.073,122.732,105.968,172.953
				C174.081,409.972,106.839,408.175,90.21,362.874z"/>
			<path fill="none" stroke="#FFFFFF" stroke-width="0.25" stroke-miterlimit="10" d="M68.316,306.331
				c14.359,39.115,72.42,40.668,129.685,3.468"/>
			<path fill="none" stroke="#FFFFFF" stroke-width="0.25" stroke-miterlimit="10" d="M84.179,245.725
				c8.394,22.864,42.333,23.771,75.806,2.027"/>
			<path fill="none" stroke="#FFFFFF" stroke-width="0.25" stroke-miterlimit="10" d="M121.801,393.622
				c-41.896-50.219-36.245-139.618,12.629-199.683"/>
			<path fill="none" stroke="#FFFFFF" stroke-width="0.25" stroke-miterlimit="10" d="M175.682,395.063
				c-41.896-50.22-60.366-140.263-41.251-201.125"/>
		</g>
		<g>
			<path fill="none" stroke="#FFFFFF" stroke-width="0.25" stroke-miterlimit="10" d="M240.399,366.892
				c-41.896-50.22-89.338-127.651-105.968-172.953c66.322-43.083,154.043-37.293,195.938,12.927
				C346.998,252.165,306.717,323.811,240.399,366.892z"/>
			<path fill="none" stroke="#FFFFFF" stroke-width="0.25" stroke-miterlimit="10" d="M198.001,309.799
				c57.265-37.199,92.046-99.063,77.688-138.178"/>
			<path fill="none" stroke="#FFFFFF" stroke-width="0.25" stroke-miterlimit="10" d="M159.985,247.752
				c33.473-21.744,53.804-57.906,45.411-80.77"/>
			<path fill="none" stroke="#FFFFFF" stroke-width="0.25" stroke-miterlimit="10" d="M296.895,316.323
				c-41.896-50.22-114.631-105.012-162.464-122.384"/>
			<path fill="none" stroke="#FFFFFF" stroke-width="0.25" stroke-miterlimit="10" d="M329.172,258.914
				c-41.896-50.22-129.081-79.311-194.741-64.975"/>
		</g>
	</g>
	<path clip-path="url(#SVGID_5_)" fill="none" stroke="#FFFFFF" stroke-width="0.25" stroke-miterlimit="10" d="M321.744,191.778
		c3.998,4.917,9.156,11.669,12.326,17.157c1.75,3.03,4.174,7.027,5.697,10.176c2.252,4.645,5.004,10.962,6.875,15.772
		c-3.633-9.899-9.031-19.338-16.273-28.018c-41.895-50.22-129.616-56.01-195.938-12.927
		c66.322-43.083,154.043-37.293,195.938,12.927c7.242,8.68,12.641,18.119,16.273,28.018c2.084,6.449,4.803,15.099,6.113,21.749
		c0.639,3.245,1.35,7.603,1.734,10.887c0.418,3.588,0.711,8.399,0.939,12.004c0.35,5.53,0.021,12.947-0.504,18.464
		c-0.553,5.832-1.756,13.575-3.08,19.281c-0.914,3.93-2.414,9.103-3.615,12.955c-0.783,2.509-2.043,5.783-2.99,8.234
		c-1.131,2.921-2.854,6.73-4.203,9.558c-1.174,2.457-2.855,5.676-4.199,8.043c-2.188,3.855-5.422,8.811-7.883,12.496
		c-1.25,1.871-3.098,4.242-4.477,6.02c-5.557,7.17-11.914,13.5-13.789,15.217c-2.951,2.703-6.976,6.209-10.054,8.766
		c-1.574,1.311-3.765,2.947-5.445,4.117c-1.718,1.195-4.002,2.799-5.758,3.939c-1.803,1.168-4.254,2.65-6.096,3.754
		c-2.767,1.654-6.592,3.623-9.477,5.061c-2.064,1.029-4.875,2.285-7,3.186c-2.12,0.896-5.002,1.961-7.146,2.801
		c-2.182,0.855-5.179,1.748-7.411,2.457c-0.836,0.266-8.462,2.641-18.611,4.303c-11.183,1.83-20.734,1.875-21.135,1.877
		c-2.924,0.006-6.829,0.033-9.746-0.174c-4.601-0.322-10.724-0.955-15.292-1.59c-6.242-0.867-14.433-2.916-20.458-4.762
		c-5.698-1.746-13.126-4.646-18.521-7.178c-9.588-4.5-16.478-8.99-20.825-11.977c-5.695-3.91-12.726-9.918-17.834-14.57
		c-3.591-3.27-8.026-8.031-11.043-11.84c-4.385-5.533-9.897-13.201-13.576-19.229c-2.66-4.357-5.783-10.437-7.788-15.132
		c-2.452-5.742-5.5-13.535-7.04-19.586c-1.644-6.46-3.553-15.174-4.342-21.793c-1.289-10.804-1.089-19.343-0.943-22.512
		c0.246-5.347,0.796-12.487,1.74-17.756c0.511-2.853,1.163-6.666,1.848-9.481c0.955-3.92,2.319-9.134,3.615-12.955
		c0.844-2.489,2.005-5.797,2.991-8.234c1.174-2.904,2.791-6.762,4.203-9.559c1.227-2.43,2.814-5.7,4.199-8.044
		c1.139-1.928,2.625-4.518,3.823-6.41c1.258-1.986,2.977-4.611,4.361-6.511c1.233-1.693,2.845-3.978,4.176-5.595
		c1.314-1.596,3.028-3.755,4.38-5.319c1.357-1.57,3.221-3.617,4.648-5.124c7.488-7.905,14.817-13.541,14.817-13.541
		c3.294-2.506,7.756-5.761,11.202-8.054c1.788-1.19,4.254-2.649,6.096-3.754c0.891-0.534,2.104-1.2,3.011-1.707
		c3.83-2.14,9.151-4.594,13.148-6.405c2.191-0.993,5.201-2.119,7.463-2.937c2.426-0.877,5.676-2.021,8.169-2.683
		c4.844-1.287,11.348-2.854,16.268-3.809c3.122-0.605,7.339-1.105,10.501-1.437c2.742-0.288,6.416-0.463,9.168-0.626
		c3.832-0.227,8.96-0.066,12.796,0.092c2.979,0.123,6.936,0.559,9.904,0.844c4.736,0.454,11.028,1.499,15.621,2.739
		c5.644,1.524,13.194,3.546,18.641,5.669c6.173,2.406,14.349,5.912,19.989,9.387c3.3,2.033,7.744,4.678,10.943,6.867
		c2.835,1.94,6.516,4.682,9.152,6.885c2.668,2.23,6.208,5.239,8.681,7.686C314.152,183.356,318.68,188.01,321.744,191.778z"/>
	<use xlink:href="#SVGID_4_"  overflow="visible" fill="none" stroke="#FFFFFF" stroke-miterlimit="10"/>
</g>
</svg>
