<?xml version="1.0" encoding="utf-8"?>
<!-- Generator: Adobe Illustrator 16.0.0, SVG Export Plug-In . SVG Version: 6.00 Build 0)  -->
<!DOCTYPE svg PUBLIC "-//W3C//DTD SVG 1.1//EN" "http://www.w3.org/Graphics/SVG/1.1/DTD/svg11.dtd">
<svg version="1.1" id="Layer_1" xmlns="http://www.w3.org/2000/svg" xmlns:xlink="http://www.w3.org/1999/xlink" x="0px" y="0px"
	 width="1080px" height="1080px" viewBox="0 0 1080 1080" enable-background="new 0 0 1080 1080" xml:space="preserve">
<path fill="none" stroke="#FFFFFF" stroke-width="0.25" stroke-miterlimit="10" d="M640.306,182.026
	c20.002,51.757-10.403,86.127-67.912,76.768s-120.343-58.903-140.344-110.661c-20.002-51.757,10.403-86.127,67.912-76.768
	C557.47,80.725,620.304,130.27,640.306,182.026c-9.323-10.499-21.455-19.533-36.22-26.693
	c-10.391-26.887-43.032-52.625-72.907-57.486c-29.874-4.862-45.67,12.993-35.279,39.88c10.391,26.887,43.032,52.624,72.907,57.486
	s45.67-12.993,35.279-39.88C618.851,162.493,630.982,171.528,640.306,182.026"/>
<g>
	<defs>
		<path id="SVGID_1_" d="M626.726,430.244c-14.723,18.217-16.262,20.121-28.63,31.861c-22.947,21.129-60.431,30.13-108.324,22.336
			C385.92,467.539,272.451,378.069,236.331,284.604c-14.425-37.326-14.332-69.644-2.402-93.925l0.922-1.854
			c11.318-20.455,12.243-22.125,21.289-34.476c14.797-18.307,16.343-20.221,29.145-32.335
			c-26.945,24.66-33.981,65.96-14.484,116.412c36.106,93.43,149.533,182.867,253.346,199.762
			c62.471,10.167,107.225-8.252,125.095-44.893C639.895,410.673,635.629,418.604,626.726,430.244"/>
	</defs>
	<clipPath id="SVGID_2_">
		<use xlink:href="#SVGID_1_"  overflow="visible"/>
	</clipPath>
	<path clip-path="url(#SVGID_2_)" fill="none" stroke="#FFFFFF" stroke-width="0.25" stroke-miterlimit="10" d="M669.403,254.733
		c2.431,18.74,3.165,24.396,2.891,48.007l-0.983,13.341c-5.156,50.929-51.291,79.653-122.4,68.08
		c-95.418-15.529-199.675-97.735-232.862-183.611c-22.674-58.672-6.308-103.878,36.768-121.678l8.258-3.243
		c18.921-6.233,23.417-7.714,44.808-11.642c19.837-2.374,21.911-2.623,36.465-2.712c-63.039-0.357-93.686,44.05-69.171,107.485
		c27.456,71.046,113.708,139.055,192.649,151.903c75.535,12.293,117.007-30.372,96.393-96.318
		C664.68,233.384,667.875,245.491,669.403,254.733"/>
	<use xlink:href="#SVGID_1_"  overflow="visible" fill="none" stroke="#FFFFFF" stroke-miterlimit="10"/>
</g>
<path fill="none" stroke="#FFFFFF" stroke-width="0.25" stroke-miterlimit="10" d="M521.786,508.969
	c-18.921,6.234-23.417,7.715-44.809,11.643c-20.128,2.408-21.772,2.605-35.698,2.714c-7.702-0.02-15.889-0.708-24.52-2.112
	c-79.101-12.874-165.526-81.02-193.038-152.209c-1.22-3.158-2.304-6.27-3.255-9.33c-5.066-18.8-5.717-21.216-7.895-35.602
	c-2.006-19.341-2.545-24.54-1.695-47.682l0.756-8.643c-1.842,17.512,1.171,37.663,9.692,59.713
	c33.223,85.968,137.59,168.261,233.111,183.807c30.382,4.944,56.21,2.541,76.237-5.803L521.786,508.969"/>
<g enable-background="new    ">
	<defs>
		<path id="SVGID_3_" enable-background="new    " d="M256.14,154.349c4.406-6.077,10.761-13.86,15.997-19.239
			c7.608-7.814,18.003-18.098,26.727-24.643c4.297-3.224,10.023-7.539,14.5-10.509c4.746-3.149,11.247-7.091,16.217-9.875
			c9.07-5.079,21.858-10.553,31.494-14.454c8.318-3.367,19.94-6.446,28.664-8.549c7.162-1.727,16.863-3.487,24.196-4.194
			c9.318-0.898,21.806-1.786,31.165-1.581c5.741,0.126,13.39,0.603,19.109,1.114c4.325,0.388,10.048,1.294,14.351,1.882
			c4.664,0.637,10.803,1.998,15.395,3.039c3.814,0.865,8.85,2.239,12.611,3.31c8.186,2.33,19.299,6.439,23.664,8.359
			c3.045,1.34,7.16,3.015,10.135,4.507c2.908,1.459,6.816,3.347,9.688,4.875c2.791,1.485,6.457,3.566,9.182,5.168
			c13.909,8.176,25.261,17.346,25.261,17.346c4.769,3.87,10.942,9.254,15.497,13.374c2.394,2.164,5.425,5.224,7.651,7.559
			c2.344,2.458,5.428,5.777,7.665,8.333c2.229,2.546,5.055,6.065,7.219,8.666c2.22,2.668,4.894,6.453,6.954,9.245
			c2.46,3.335,5.496,7.96,7.68,11.482c2.521,4.067,5.726,9.591,7.994,13.805c4.015,7.46,8.46,17.873,11.755,25.678
			c12.642,32.709,5.236,73.212-25.289,114.201C569.093,407.205,433.257,461.4,328.224,444.307
			c105.033,17.094,240.869-37.102,303.395-121.058c30.525-40.988,37.931-81.491,25.289-114.201
			c6.496,16.897,9.355,30.107,9.381,30.23c1.809,8.957,3.868,20.977,5.061,30.036c0.651,4.946,0.764,11.615,1.077,16.594
			c0.526,8.367,0.008,19.597-0.896,27.932c-1.128,10.398-3.482,24.183-5.859,34.368c-1.868,8.003-4.99,18.574-8.214,26.132
			c-3.185,7.466-7.481,17.408-11.104,24.672c-2.459,4.931-6.328,11.191-9.145,15.928c-3.849,6.473-9.66,14.718-14.473,20.51
			c-7.042,8.476-17.065,19.258-24.956,26.948c-7.73,7.534-19.295,16.262-28.281,22.242c-13.18,8.772-22.218,13.128-31.787,17.739
			c-8.233,3.969-19.722,8.206-28.477,10.834c-9.509,2.855-22.479,5.676-32.257,7.398c-7.05,1.242-16.581,2.231-23.736,2.424
			c-4.643,0.125-10.837,0.373-15.48,0.258c-5.741-0.143-13.408-0.426-19.109-1.115c-4.311-0.521-10.066-1.172-14.35-1.881
			c-4.645-0.769-10.829-1.893-15.395-3.039c-4.059-1.021-9.503-2.287-13.488-3.569c-3.459-1.112-8.092-2.539-11.517-3.756
			c-3.414-1.214-7.941-2.913-11.27-4.345c-13.156-5.656-18.051-8.391-19.895-9.42c-2.738-1.529-6.447-3.472-9.109-5.13
			c-2.629-1.638-6.167-3.768-8.758-5.464c-2.551-1.672-5.899-3.98-8.378-5.758c-2.48-1.779-5.728-4.234-8.125-6.124
			c-2.402-1.896-5.507-4.543-7.867-6.491c-2.378-1.962-5.347-4.812-7.631-6.882c-0.256-0.232-6.367-5.795-14.932-15.456
			c-5.107-5.76-10.712-12.87-15.377-19.506c-4.343-6.178-9.737-14.71-13.342-21.346c-2.442-4.494-5.516-10.589-7.677-15.226
			c-1.82-3.906-3.951-9.247-5.588-13.234c-2.476-6.03-5.152-14.325-6.879-20.611c-1.247-4.538-2.929-10.597-3.758-15.23
			c-1.584-8.856-3.894-20.695-4.276-29.685c-0.429-10.082-0.735-23.562-0.164-33.637c0.48-8.467,2.121-19.69,3.662-28.03
			c1.472-7.966,4.377-18.396,6.688-26.161c1.536-5.161,3.944-11.947,6.123-16.871c2.643-5.971,5.95-14.059,9.161-19.744
			C241.953,175.947,249.644,163.309,256.14,154.349z"/>
	</defs>
	<clipPath id="SVGID_4_">
		<use xlink:href="#SVGID_3_"  overflow="visible"/>
	</clipPath>
	<g clip-path="url(#SVGID_4_)">
		<path fill="none" stroke="#FFFFFF" stroke-miterlimit="10" d="M661.592,256.787c2.237-14.636,1.332-28.607-2.544-41.501
			C631.592,144.239,545.34,76.23,466.398,63.382c-8.457-1.376-16.487-2.064-24.051-2.107c-19.397,0.556-21.89,0.627-36.465,2.712
			c-18.871,3.615-23.942,4.586-44.808,11.642l-8.258,3.243c19.972-8.254,45.687-10.615,75.914-5.696
			C524.148,88.705,628.404,170.911,661.592,256.787"/>
		<path fill="none" stroke="#FFFFFF" stroke-miterlimit="10" d="M661.592,256.787c8.455,21.878,11.481,41.884,9.719,59.295
			l0.983-13.341c0.191-24.42,0.195-24.886-2.891-48.007c-1.851-9.184-4.722-21.35-7.186-30.388c-0.93-2.974-1.985-5.995-3.171-9.06
			C662.924,228.179,663.829,242.15,661.592,256.787"/>
	</g>
	<g clip-path="url(#SVGID_4_)">
		<path fill="none" stroke="#FFFFFF" stroke-miterlimit="10" d="M612.41,345.81c6.979-7.242,13.409-14.773,19.209-22.561
			c5.895-7.916,10.928-15.813,15.12-23.64c-36.106-93.43-149.533-182.867-253.346-199.762c-47.754-7.772-85.155,1.16-108.109,22.167
			c-16.211,16.128-18.294,18.2-29.145,32.335c-13.568,19.812-14.38,20.998-21.289,34.476l-0.922,1.854
			c17.943-36.52,62.663-54.857,125.042-44.706C462.821,162.875,576.291,252.345,612.41,345.81"/>
		<path fill="none" stroke="#FFFFFF" stroke-miterlimit="10" d="M631.619,323.249c-5.8,7.787-12.23,15.319-19.209,22.561
			c19.463,50.362,12.497,91.608-14.314,116.295c16.438-16.453,18.156-18.174,28.63-31.861
			c13.285-19.396,14.674-21.425,22.516-36.949c11.825-24.249,11.877-56.479-2.502-93.686
			C642.547,307.436,637.514,315.333,631.619,323.249"/>
	</g>
	<g clip-path="url(#SVGID_4_)">
		<path fill="none" stroke="#FFFFFF" stroke-miterlimit="10" d="M510.17,415.622c20.152-9.009,39.402-19.721,57.067-31.866
			c-33.222-85.967-137.589-168.26-233.11-183.806c-71.02-11.559-117.154,17.035-122.494,67.797l-0.756,8.643
			c-0.634,20.146-0.785,24.933,1.695,47.682c3.526,20.09,3.814,21.731,7.895,35.602c-20.472-65.936,21.074-108.563,96.665-96.26
			C396.232,276.287,482.658,344.433,510.17,415.622"/>
		<path fill="none" stroke="#FFFFFF" stroke-miterlimit="10" d="M510.17,415.622c24.509,63.422-6.01,107.862-68.891,107.703
			c19.701-0.63,21.76-0.696,35.698-2.714c18.868-3.614,23.938-4.586,44.809-11.643l8.888-3.505
			c42.939-17.889,59.219-63.083,36.563-121.708C549.572,395.901,530.322,406.613,510.17,415.622"/>
	</g>
	<path clip-path="url(#SVGID_4_)" fill="none" stroke="#FFFFFF" stroke-miterlimit="10" d="M387.486,446.84
		c10.476,27.107-5.449,45.109-35.57,40.208c-30.121-4.902-63.031-30.853-73.507-57.96c-10.476-27.108,5.449-45.11,35.57-40.209
		C344.1,393.781,377.01,419.731,387.486,446.84c21.091-1.363,42.603-4.957,63.853-10.512
		c-20.074-51.945-83.137-101.67-140.855-111.063c-57.718-9.393-88.233,25.102-68.159,77.047
		c20.075,51.945,83.138,101.67,140.855,111.063c57.718,9.394,88.234-25.102,68.159-77.047
		C430.089,441.883,408.577,445.477,387.486,446.84"/>
	<use xlink:href="#SVGID_3_"  overflow="visible" fill="none" stroke="#FFFFFF" stroke-miterlimit="10"/>
</g>
</svg>
