<?xml version="1.0" encoding="utf-8"?>
<!-- Generator: Adobe Illustrator 16.0.0, SVG Export Plug-In . SVG Version: 6.00 Build 0)  -->
<!DOCTYPE svg PUBLIC "-//W3C//DTD SVG 1.1//EN" "http://www.w3.org/Graphics/SVG/1.1/DTD/svg11.dtd">
<svg version="1.1" id="Layer_1" xmlns="http://www.w3.org/2000/svg" xmlns:xlink="http://www.w3.org/1999/xlink" x="0px" y="0px"
	 width="1080px" height="1080px" viewBox="0 0 1080 1080" enable-background="new 0 0 1080 1080" xml:space="preserve">
<g enable-background="new    ">
	<defs>
		<path id="SVGID_1_" enable-background="new    " d="M155.965,56.673c43.738,109.164,87.475,218.313,131.213,327.478
			c-0.041-0.102-0.209-0.141-0.425-0.09c-0.262,0.063-0.494,0.236-0.518,0.389c-0.004,0.027-0.002,0.053,0.007,0.074
			C286.242,257.979,199.393,165.961,155.965,56.673z"/>
	</defs>
	<clipPath id="SVGID_2_">
		<use xlink:href="#SVGID_1_"  overflow="visible"/>
	</clipPath>
</g>
<g enable-background="new    ">
	<defs>
		<path id="SVGID_3_" enable-background="new    " d="M287.178,384.151c0.009,0.021,0.011,0.047,0.007,0.074L155.965,56.673
			C199.703,165.837,243.438,274.987,287.178,384.151z"/>
	</defs>
	<clipPath id="SVGID_4_">
		<use xlink:href="#SVGID_3_"  overflow="visible"/>
	</clipPath>
</g>
<g enable-background="new    ">
	<defs>
		<path id="SVGID_5_" enable-background="new    " d="M155.965,56.673l131.22,327.552c-0.024,0.152-0.256,0.326-0.518,0.389
			c-0.216,0.051-0.385,0.012-0.425-0.09C242.814,275.235,199.393,165.961,155.965,56.673z"/>
	</defs>
	<clipPath id="SVGID_6_">
		<use xlink:href="#SVGID_5_"  overflow="visible"/>
	</clipPath>
</g>
<g enable-background="new    ">
	<defs>
		<path id="SVGID_7_" enable-background="new    " d="M422.906,251.479c-9.628,61.741-60.174,114.773-135.721,132.747
			c0.023-0.153-0.169-0.227-0.432-0.164c-0.262,0.063-0.494,0.236-0.518,0.389c-0.024,0.153,0.169,0.227,0.432,0.164
			s0.494-0.236,0.518-0.389C362.732,366.252,413.278,313.22,422.906,251.479c-0.856,5.282-2.269,12.283-3.515,17.487
			c-1.055,4.398-2.835,10.168-4.15,14.496c-2.126,7.001-5.837,16.067-8.942,22.692c-3.492,7.451-8.708,17.149-13.208,24.038
			c-2.788,4.267-6.685,9.841-9.752,13.91c-2.55,3.381-6.085,7.797-8.958,10.908c-2.231,2.416-5.104,5.739-7.465,8.028
			c-2.294,2.224-5.3,5.244-7.652,7.405c-2.349,2.157-5.579,4.923-8.012,6.983c-6.729,5.697-16.889,12.8-22.313,16.063
			c-6.64,3.992-8.644,5.197-14.337,8.139c-6.261,3.234-11.779,5.627-14.512,6.766c-10.567,4.404-20.617,7.678-31.627,10.3
			c-3.91,0.931-9.171,1.97-13.128,2.677c-2.96,0.527-6.927,1.146-9.92,1.438c-5.866,0.572-13.708,1.156-19.597,1.391
			c-3.792,0.15-8.86,0.084-12.651-0.111c-4.482-0.23-10.453-0.668-14.915-1.144c-3.586-0.382-8.356-1.034-11.898-1.709
			c-5.946-1.132-13.826-2.907-19.685-4.427c-3.892-1.01-9.024-2.594-12.791-4.001c-7.873-2.94-18.358-7.028-25.758-11.014
			c-3.862-2.079-9.063-4.774-12.773-7.114c-5.633-3.551-13.008-8.513-18.341-12.5c-7.415-5.545-16.58-13.905-23.021-20.556
			c-6.125-6.324-13.652-15.396-18.749-22.573c-5.628-7.928-12.125-19.199-16.671-27.793c-3.068-5.8-6.633-13.844-8.656-20.085
			c-3.032-9.359-7.083-21.898-8.844-31.578c-1.168-6.417-2.357-15.044-3.001-21.535c-0.474-4.769-0.603-11.168-0.722-15.96
			c-0.126-5.084,0.232-11.869,0.611-16.941c0.351-4.689,1.092-10.923,1.819-15.569c0.825-5.274,2.261-12.253,3.505-17.444
			c1.054-4.4,2.889-10.154,4.149-14.5c2.036-7.022,5.803-16.068,8.935-22.676c3.525-7.438,8.823-17.084,13.211-24.048
			c1.348-2.139,8.585-13.389,18.711-24.819c10.041-11.334,17.796-17.934,23.143-22.43c7.419-6.238,17.122-12.921,22.326-16.071
			c4.228-2.559,9.936-5.865,14.327-8.133c4.954-2.56,6.044-3.04,14.532-6.777c5.495-2.42,17.043-6.485,23.279-8.129
			c3.759-0.991,8.763-2.368,12.575-3.131c6.345-1.271,11.825-2.368,18.849-3.161c13.935-1.573,21.495-1.567,32.265-1.281
			c4.486,0.12,10.452,0.668,14.915,1.143c3.587,0.382,8.35,1.091,11.904,1.71c5.96,1.037,13.818,2.904,19.673,4.423
			c3.893,1.01,9.028,2.592,12.795,4.001c7.863,2.94,18.133,7.425,25.729,10.999c3.97,1.867,9.059,4.784,12.776,7.113
			c5.631,3.529,12.96,8.528,18.307,12.475c3.705,2.735,8.454,6.648,11.835,9.776c3.42,3.166,8.076,7.31,11.19,10.778
			c5.877,6.546,13.602,15.413,18.736,22.556c5.675,7.895,12.013,19.258,16.671,27.792c2.375,4.35,4.721,10.558,6.736,15.085
			c4.017,9.016,7.417,21.833,9.695,31.436c1.503,6.337,2.745,14.954,3.557,21.416c0.6,4.77,0.991,11.178,1.142,15.982
			c0.21,6.669-0.103,15.576-0.514,22.236C424.436,240.604,423.452,246.808,422.906,251.479z"/>
	</defs>
	<clipPath id="SVGID_8_">
		<use xlink:href="#SVGID_7_"  overflow="visible"/>
	</clipPath>
	<g clip-path="url(#SVGID_8_)">
		<g>
			<path fill="none" stroke="#FFFFFF" stroke-width="0.25" stroke-miterlimit="10" d="M289.034,28.759
				c2.593,0.72,5.088,1.519,7.481,2.395c-1.348-0.56-2.705-1.094-4.07-1.603c-4.733-1.575-11.025-3.748-15.818-5.131
				C280.838,25.61,284.979,27.058,289.034,28.759"/>
			<path fill="none" stroke="#FFFFFF" stroke-width="0.25" stroke-miterlimit="10" d="M267.913,24.897
				c3.049,0.31,6.014,0.705,8.888,1.183c-6.633-2.884-13.481-4.971-20.475-6.246l-0.828-0.147c-3.594-0.5-8.374-1.271-11.981-1.664
				c1.935,0.225,3.388,0.481,4.793,0.729C254.984,19.96,261.541,22.015,267.913,24.897"/>
		</g>
		<path fill="none" stroke="#FFFFFF" stroke-width="0.25" stroke-miterlimit="10" d="M237.608,24.257
			c0.188,0.013,18.687,1.14,16.205-1.659c-0.597-0.672-2.426-1.346-3.41-1.708c-5.043-1.743-10.168-2.913-15.337-3.499
			c1.546,0.067,3.071,0.158,4.572,0.273c-0.792-0.088-1.585-0.163-2.379-0.226c-5.35-0.272-12.488-0.565-17.844-0.603
			c0.26-0.002,0.521-0.003,0.781-0.001c-2.278,0.024-4.602,0.102-6.967,0.234c2.064,0.018,4.132,0.167,6.199,0.448
			c2.561-0.143,5.075-0.227,7.541-0.253c4.353,0.531,8.688,1.553,12.979,3.058c0.952,0.35,1.028,0.416,1.313,0.665
			c-0.028,0.063-0.065,0.147-0.093,0.209c-0.403,0.133-1.242,0.409-7.586,0.18c1.029,0.851,2.4,1.985,3.429,2.836
			C237.19,24.226,237.429,24.244,237.608,24.257"/>
		<path fill="none" stroke="#FFFFFF" stroke-width="0.25" stroke-miterlimit="10" d="M209.476,19.483
			c-7.422-1.148-17.152,0.81-16.277,2.223c0.102,0.165,0.316,0.257,0.544,0.355C199.113,20.99,204.364,20.133,209.476,19.483
			 M186.985,26.133c-0.708-0.477-1.409-0.909-2.102-1.299c-1.453-0.878-4.477-2.706,4.115-4.746c2.241-0.532,4.383-0.87,5.8-1.093
			c7.425-1.087,17.918-1.975,25.74-0.033c0.741,0.201,1.483,0.42,2.225,0.659c6.438,2.243,3.907,4.295,1.825,5.319
			c-4.793,2.356-23.896,5.697-34.603,2.682c2.661-0.902,6.208-2.105,8.869-3.007c6.561,1.252,17.71-0.683,16.342-2.836
			c-0.181-0.286-0.603-0.548-0.881-0.722c-8.414,1.064-17.185,2.66-26.24,4.814C187.712,25.958,187.349,26.045,186.985,26.133"/>
		<path fill="none" stroke="#FFFFFF" stroke-width="0.25" stroke-miterlimit="10" d="M144.765,47.567
			c3.672-1.559,7.393-3.057,11.155-4.489c-1.652-3.584-3.035-6.44-4.136-8.543c-1.056-3.834,13.117-6.214,14.332-5.507
			c0.073,0.042,0.161,0.116,0.229,0.165c1.988,1.821,4.214,4.474,6.655,7.935c3.875-1.227,7.783-2.381,11.719-3.458
			c-4.813-5.42-9.185-8.639-12.988-9.555c-2.792,0.764-5.567,1.58-8.32,2.444l0.618,0.602c-3.896,0.369-7.587,1.547-10.368,2.533
			c-5.549,2.05-12.058,5.208-11.553,8.61C142.665,40.637,143.553,43.735,144.765,47.567"/>
		<path fill="none" stroke="#FFFFFF" stroke-width="0.25" stroke-miterlimit="10" d="M111.445,55.539
			c-0.788,3.713,3.371,2.243,6.999,0.354c7.87-4.399,8.212-7.581,8.325-8.626c0.017-0.362,0.039-0.713,0.066-1.055
			c0.062-4.633-10.52,2.677-12.495,4.522c-1.819,1.7-2.267,2.884-2.535,3.592C111.678,54.721,111.558,55.125,111.445,55.539
			 M100.402,70.801c1.424-10.587,5.313-18.077,11.516-22.047l1.729-1.089l4.073-2.473c0.339-0.201,0.68-0.4,1.021-0.599
			c-1.796,1.073-3.322,2.597-4.573,4.555c6.939-5.584,21-13.285,22.02-7.479c0.038,0.361,0.083,0.736,0.135,1.125
			c0.585,8.183-17.628,20.565-26.27,19.651c-0.192,0.855-0.449,1.997-0.642,2.853C106.347,67.093,103.342,68.929,100.402,70.801"/>
		<path fill="none" stroke="#FFFFFF" stroke-width="0.25" stroke-miterlimit="10" d="M66.312,89.937
			c-0.705,1.152-2.579,4.215-1.092,3.705c0.727-0.249,1.918-1.341,2.706-2.064c5.254-5.038,7.866-9.472,9.27-11.854
			c0.33-0.566,0.668-1.125,1.015-1.675c1.163-1.861,1.528-2.503,1.55-2.898c-0.813-0.19-7.832,6.589-12.225,12.916
			C67.119,88.682,66.711,89.305,66.312,89.937 M53.247,110.28c3.479-8.57,8.195-16.305,14.062-23.066
			c2.317-2.528,5.346-5.957,7.733-8.419c-0.203,0.21-0.404,0.421-0.603,0.633c1.813-1.887,1.813-1.887,7.271-7.191l0.333-0.312
			c4.488-4.178,4.925-4.264,5.347-4.347c0.133,0.457,0.201,0.687-2.062,4.54c-0.352,0.595-0.692,1.201-1.022,1.819
			c-8.296,15.354-20.791,27.589-23.34,25.986c-0.525,1.157-1.226,2.701-1.752,3.858C57.13,105.933,55.14,108.101,53.247,110.28"/>
		<path fill="none" stroke="#FFFFFF" stroke-width="0.25" stroke-miterlimit="10" d="M36.772,134.089l5.584-10.994l0.075-0.129
			c0.042-0.072,5.53-9.344,8.558-14.151c-0.77,1.12-1.509,2.242-2.218,3.364l0.8-1.259c3.26-4.759,7.645-11.084,11.125-15.685
			l-0.184,0.239c-1.011,1.337-1.248,1.669-2.129,2.905c-0.605,0.861-1.196,1.733-1.771,2.616
			C54.161,104.804,54.161,104.804,36.772,134.089"/>
		<path fill="none" stroke="#FFFFFF" stroke-width="0.25" stroke-miterlimit="10" d="M413.678,153.814
			c-0.189-0.562-0.444-1.309-0.635-1.87c0.463,0.91,1.08,2.124,1.543,3.035c1.875,6.364,4.428,14.841,5.955,21.297l0.201,0.919
			l-0.102-0.459C420.065,174.292,418.868,169.206,413.678,153.814 M410.455,144.57c-0.479-1.301-0.977-2.598-1.492-3.891
			c-0.347-0.869-0.701-1.733-1.062-2.593c-1.419-3.33-2.034-4.696-3.288-7.31c1.869,4.219,4.363,9.845,6.232,14.064l1.978,5.155
			C412.14,148.137,411.35,146.328,410.455,144.57"/>
		<path fill="none" stroke="#FFFFFF" stroke-width="0.25" stroke-miterlimit="10" d="M393.122,140.103
			c2.462,1.501,4.78,3.095,6.949,4.78c-1.876-7.967-4.326-15.793-7.37-23.423c-0.634-1.587-1.288-3.155-1.965-4.704
			c-1.809-4.295-2.122-5.402-1.762-6.236c2.027-0.05,6.836,6.363,10.09,13.456c0.833,1.87,1.633,3.767,2.4,5.689
			c3.045,7.63,5.467,15.43,7.289,23.347c1.711,1.95,3.262,3.988,4.648,6.11c-1.793-7.879-4.2-15.659-7.244-23.289
			c-3.191-7.996-6.977-15.563-11.298-22.681c-1.296-1.985-2.737-3.895-4.318-5.729l2.55,4.495
			c-5.16-7.924-8.176-10.634-9.311-11.654c-2.895-2.407-4.185-2.159-3.835,0.736c0.37,3.066,2.304,7.529,3.582,10.483
			c0.743,1.693,1.463,3.411,2.157,5.151C388.73,124.264,391.202,132.105,393.122,140.103"/>
		<path fill="none" stroke="#FFFFFF" stroke-width="0.25" stroke-miterlimit="10" d="M356.876,105.854
			c1.306,3.183,4.772,11.638,12.444,14.5c5.094,1.426,6.264-1.7,3.477-9.291c-0.145-0.367-0.289-0.733-0.436-1.1
			c-0.295-0.742-0.596-1.479-0.9-2.212c-6.02-13.713-15.719-16.788-17.368-13.149c-0.901,1.988,0.514,5.57,1.45,7.94
			c0.303,0.732,0.602,1.47,0.898,2.212C356.588,105.121,356.732,105.487,356.876,105.854 M353.791,126.078
			c-2.165-8.085-4.764-15.972-7.809-23.602c-5.396-13.524-11.892-25.487-19.268-35.834c3.5,0.637,6.887,1.375,10.156,2.212
			c4.077,5.593,7.873,11.649,11.35,18.159c3.507-9.485,22.507,4.504,30.803,22.679c0.226,0.494,0.507,1.16,0.724,1.656
			c0.348,0.831,0.689,1.667,1.025,2.509c0.177,0.444,0.352,0.888,0.525,1.333c5.76,15.565,0.694,20.877-7.529,17.02
			c-5.576-2.615-9.958-7.94-11.398-9.69c0.346,1.696,0.805,3.958,1.15,5.655C360.381,127.386,357.137,126.687,353.791,126.078"/>
		<path fill="none" stroke="#FFFFFF" stroke-width="0.25" stroke-miterlimit="10" d="M284.345,101.904
			c1.214,2.836,4.91,11.467,15.823,11.255c10.781-1.046,7.687-9.715,6.669-12.564c-0.145-0.367-0.29-0.734-0.436-1.1
			c-0.296-0.742-0.594-1.479-0.895-2.211c-6.321-14.119-20.943-12.438-23.34-6.743c-1.144,2.717,0.153,6.188,0.85,8.052
			c0.299,0.732,0.597,1.47,0.893,2.211C284.055,101.17,284.201,101.537,284.345,101.904 M278.366,126.121
			c-2.635-8.084-5.477-15.971-8.521-23.601c-5.396-13.524-11.129-25.488-17.065-35.836c4.629-0.671,9.184-1.226,13.657-1.667
			c3.339,5.554,6.583,11.579,9.708,18.069c7.548-12.835,32.573-6.957,41.86,14.034c0.342,0.83,0.682,1.666,1.018,2.508
			c0.177,0.443,0.353,0.888,0.527,1.333c7.713,21.24-9.294,27.977-24.064,20.951c-2.44-1.16-4.245-2.467-5.324-3.248
			c0.378,1.753,0.882,4.09,1.26,5.844C287.141,124.944,282.787,125.481,278.366,126.121"/>
		<path fill="none" stroke="#FFFFFF" stroke-width="0.25" stroke-miterlimit="10" d="M242.106,101.279
			c-8.512-10.992-23.988-3.893-24.688,3.444c-0.121,1.269,0.214,2.213,0.415,2.777c6.141-1.787,12.338-3.428,18.578-4.912
			C238.318,102.134,240.217,101.697,242.106,101.279 M207.218,121.837c-0.516-1.305-1.032-2.604-1.548-3.897
			c-0.347-0.869-0.692-1.732-1.037-2.59c-7.492-20.405,11.31-27.176,19.741-29.14c9.304-1.736,26.065-2.05,33.796,15.354
			c0.36,0.882,0.718,1.771,1.076,2.667c0.197,0.494,0.394,0.989,0.589,1.485c9.625,26.772-26.133,35.176-41.552,28.304
			c-3.869-1.725-6.068-4.093-7.383-5.508c3.659-2.251,8.538-5.252,12.197-7.503c7.363,6.646,23.875,2.942,23.455-7.643
			c-0.028-0.706-0.187-1.638-0.309-2.333c-1.956,0.432-3.922,0.883-5.898,1.354C229.138,115.054,218.067,118.225,207.218,121.837"/>
		<path fill="none" stroke="#FFFFFF" stroke-width="0.25" stroke-miterlimit="10" d="M176.686,156.286
			c4.876-2.198,9.827-4.313,14.844-6.335c0.316-28.049,0.562-34.248,1.671-53.417c-5.167,1.77-10.281,3.64-15.333,5.604
			c-0.18,16.799-0.208,19.38,0.245,36.236c-12.573-13.649-13.887-15.076-24.336-25.953c-4.797,2.236-9.518,4.554-14.152,6.945
			C150.521,130.026,156.523,135.899,176.686,156.286"/>
		<path fill="none" stroke="#FFFFFF" stroke-width="0.25" stroke-miterlimit="10" d="M131.058,144.285
			c-7.187-9.609-18.666-0.422-19.995,7.83c-0.351,2.182,0.103,3.543,0.347,4.274C117.714,152.217,124.275,148.174,131.058,144.285
			 M104.071,173.971c-0.535-1.296-1.061-2.59-1.577-3.884c-0.347-0.869-0.688-1.734-1.024-2.596
			c-7.341-20.597,7.902-32.183,14.796-36.208c7.606-3.957,21.471-8.019,28.857,9.241c0.35,0.886,0.703,1.776,1.061,2.672
			c0.197,0.494,0.395,0.988,0.594,1.483c10.253,27.716-20.943,44.992-33.903,39.447c-2.477-1.06-3.781-2.379-5.162-3.776
			c2.707-3.134,6.315-7.312,9.021-10.445c6.873,5.713,20.032-1.896,18.814-13.436c-0.079-0.745-0.283-1.726-0.44-2.458
			C124.135,160.296,113.742,166.983,104.071,173.971"/>
		<path fill="none" stroke="#FFFFFF" stroke-width="0.25" stroke-miterlimit="10" d="M94.456,207.228
			c3.292-2.792,6.703-5.551,10.224-8.27c-3.718-7.63-7.12-15.282-10.165-22.912c-5.396-13.524-9.371-26.225-11.992-37.964
			c-3.452,2.666-6.795,5.37-10.022,8.107c2.426,11.896,6.297,24.681,11.693,38.205C87.239,192.023,90.673,199.648,94.456,207.228"/>
		<path fill="none" stroke="#FFFFFF" stroke-width="0.25" stroke-miterlimit="10" d="M55.652,215.794
			c3.07,6.892,6.834,8.129,11.189,3.675c4.052-4.878,4.713-11.031,1.965-18.285c-0.255-0.625-0.508-1.249-0.757-1.874
			c-0.397-0.997-0.786-1.99-1.166-2.979c-5.204-12.566-11.975-2.935-13.426,0.909c-2.339,6.194-0.574,11.263,0.274,13.699
			c0.377,0.991,0.765,1.985,1.163,2.981C55.144,214.546,55.396,215.17,55.652,215.794 M48.92,225.005
			c-0.289-0.7-0.573-1.401-0.854-2.104c-0.439-1.101-0.866-2.199-1.28-3.295c-5.821-16.58,0.002-30.813,7.392-38.605
			c5.131-4.851,14.763-10.475,21.623,6.351c0.418,1.092,0.847,2.188,1.286,3.288c0.28,0.703,0.564,1.404,0.851,2.106
			c9.865,25.609-8.758,47.593-20.098,42.958C52.566,233.548,50.011,227.562,48.92,225.005"/>
		<path fill="none" stroke="#FFFFFF" stroke-width="0.25" stroke-miterlimit="10" d="M32.51,254.971
			c3.993,9.251,6.66,7.357,8.195,4.141c2.867-7.525-0.602-16.389-1.742-19.302c-0.171-0.419-0.34-0.839-0.508-1.26
			c-0.285-0.715-0.565-1.429-0.839-2.142c-3.794-9.468-6.244-7.603-7.631-4.371c-0.75,1.747-2.879,8.316,1.178,19.531
			c0.273,0.714,0.553,1.429,0.838,2.144C32.169,254.132,32.338,254.552,32.51,254.971 M30.23,264.206
			c-0.213-0.518-0.424-1.038-0.631-1.558c-0.305-0.765-0.604-1.53-0.896-2.295c-6.14-16.837-4.77-31.497-2.351-37.243
			c1.679-3.452,3.56-4.334,6.097-2.86c-0.373-1.785-0.871-4.164-1.244-5.949c1.481-2.813,3.109-5.627,4.877-8.438
			c1.866,7.753,4.381,15.648,7.571,23.644c4.793,12.012,10.873,23.654,18.042,34.802c-1.852,2.943-3.547,5.891-5.08,8.837
			c-3.686-5.601-7.081-11.345-10.157-17.219c1.777,17.522-3.686,23.92-9.7,18.703C33.376,271.694,31.091,266.254,30.23,264.206"/>
		<path fill="none" stroke="#FFFFFF" stroke-width="0.25" stroke-miterlimit="10" d="M25.878,270.201
			c-0.736-1.773-1.968-4.741-2.373-3.924c-0.527,1.065,1.127,8.99,3.81,16.722C26.356,278.937,25.868,274.668,25.878,270.201
			 M33.441,300.061c-0.53-1.23-1.045-2.472-1.545-3.722l-0.067-0.169c-7.361-20.857-7.361-20.857-9.793-31.884l-0.02-0.09
			c-0.748-3.521-1.049-5.343-1.289-7.799c-0.207-3.115,0.074-3.451,0.499-3.959c1.499,0.254,3.351,4.44,6.458,12.593
			c0.339,0.896,0.688,1.793,1.045,2.689c0.197,0.494,0.396,0.986,0.598,1.478c12.342,30.292,10.574,41.532,10.539,41.604
			c-0.128,0.035-0.3,0.081-0.428,0.115c-1.854-1.162-2.125-1.913-6.676-14.449c0.708,1.271,0.825,1.381,1.262,1.792
			c0.1-0.018,0.234-0.042,0.334-0.06c0.181-0.593,0.811-4.258-4.625-18.245C29.703,287.186,30.977,293.902,33.441,300.061"/>
		<path fill="none" stroke="#FFFFFF" stroke-width="0.25" stroke-miterlimit="10" d="M44.934,323.016
			c-1.282-2.148-2.514-4.334-3.696-6.559l4.955,8.776C45.754,324.503,45.334,323.764,44.934,323.016"/>
		<path fill="none" stroke="#FFFFFF" stroke-width="0.25" stroke-miterlimit="10" d="M400.467,287.529
			c-1.955,3.602-6.022,11.098-5.463,15.078c0.43,1.478,1.952,2.644,7.326-6.153c0.587-0.988,1.163-1.981,1.729-2.978
			c6.808-12.344,5.096-17.219,3.864-17.045c-1.655,0.234-4.127,4.875-5.763,7.947C401.607,285.433,401.043,286.482,400.467,287.529
			 M386.019,303.347c13.253-19.545,22.901-40.786,28.403-62.637c0.998,1.896,1.853,3.862,2.557,5.898
			c-1.962,7.368-4.423,14.649-7.357,21.8c3.605-3.787,4.233-0.482,4.286,1.825c0.003,0.115,0.152,11.757-9.628,28.837
			c-0.654,1.115-1.323,2.224-2.007,3.326c-7.588,11.944-13.301,14.64-13.899,11.248c-0.513-2.902,1.938-8.869,2.86-11.115
			c-1.048,1.422-2.444,3.318-3.492,4.74C387.26,305.918,386.684,304.61,386.019,303.347"/>
		<path fill="none" stroke="#FFFFFF" stroke-width="0.25" stroke-miterlimit="10" d="M396.309,267.857
			c3.438-10.68,0.18-13.774-2.531-12.438c-0.961,0.473-2.818,1.898-4.475,6.124C391.925,263.477,394.267,265.584,396.309,267.857
			 M380.302,268.823c0.911-2.309,1.786-4.627,2.625-6.955c7.74-21.001,13.907-20.811,17.719-16.952
			c1.722,2.171,6.636,10.799-2.443,30.651c-0.658,1.389-1.333,2.772-2.022,4.151c-8.664,16.729-17.259,20.124-19.85,12.798
			c-1.836-5.188,0.422-13.199,1.271-16.215c1.745-0.167,4.071-0.389,5.816-0.556c-2.086,7.93,0.555,10.435,3.289,8.676
			c2.241-1.443,4.15-4.812,5.068-6.431C388.664,274.517,384.813,271.451,380.302,268.823"/>
		<path fill="none" stroke="#FFFFFF" stroke-width="0.25" stroke-miterlimit="10" d="M357.298,282.892
			c2.093,0.61,4.101,1.291,6.017,2.039c12.254-20.573,16.063-27.387,25.361-47.127c-2.196-1.212-4.52-2.339-6.965-3.377
			c-7.027,16.437-8.106,18.963-15.626,33.958c2.687-20.136,2.848-21.341,2.769-38.31c-2.805-0.74-5.721-1.39-8.74-1.946
			C361.299,249.578,361.743,257.604,357.298,282.892"/>
		<path fill="none" stroke="#FFFFFF" stroke-width="0.25" stroke-miterlimit="10" d="M347.502,247.293
			c0.043-11.778-7.141-11.931-10.912-8.082c-1.766,1.802-2.824,4.236-3.146,7.234C338.321,246.521,343.014,246.807,347.502,247.293
			 M323.721,257.799c0.169-2.453,0.315-4.914,0.438-7.381c1.595-24.781,14.24-26.162,19.603-25.604
			c4.678,0.906,15.122,5.387,11.073,27.36c-0.318,1.572-0.649,3.141-0.993,4.707c-5.803,24.46-20.586,28.72-27.162,18.545
			c-2.229-3.449-2.746-7.634-3.024-9.882c2.437-1.118,5.686-2.609,8.123-3.727c1.154,7.84,7.07,8.768,10.814,3.766
			c1.774-2.371,2.654-5.421,3.126-7.06C338.865,257.773,331.506,257.522,323.721,257.799"/>
		<path fill="none" stroke="#FFFFFF" stroke-width="0.25" stroke-miterlimit="10" d="M307.524,280.213
			c2.804-0.334,5.56-0.598,8.264-0.792c2.021-23.372,1.999-47.907-0.087-72.343c-3.8,0.273-7.675,0.643-11.617,1.113
			C307.063,232.542,308.223,256.968,307.524,280.213"/>
		<path fill="none" stroke="#FFFFFF" stroke-width="0.25" stroke-miterlimit="10" d="M273.191,263.544
			c1.792,7.553,5.325,10.916,10.499,9.997c5.092-1.48,7.328-6.189,6.645-13.997c-0.207-1.804-0.421-3.614-0.645-5.428
			c-2.227-14.701-12.799-11.262-15.897-7.444c-3.176,3.913-2.273,8.699-1.734,11.558
			C272.442,260.006,272.82,261.778,273.191,263.544 M262.935,266.788c-0.522-1.932-1.052-3.87-1.587-5.814
			c-5.966-23.655,11.117-28.991,16.494-30.063c6.005-0.784,20.189-0.305,22.194,21.036c0.145,2.035,0.278,4.066,0.399,6.091
			c0.964,25.325-17.91,33.512-29.004,23.706C266.319,277.224,264.134,271.044,262.935,266.788"/>
		<path fill="none" stroke="#FFFFFF" stroke-width="0.25" stroke-miterlimit="10" d="M228.814,278.895
			c3.875,7.399,8.385,10.241,13.403,8.449c4.728-2.33,5.72-7.5,2.951-15.367c-0.446-1.172-0.893-2.347-1.342-3.525
			c-6.362-15.5-16.255-8.541-17.952-5.011c-2.181,4.537,0.067,9.435,1.274,12.065C227.704,276.639,228.259,277.769,228.814,278.895
			 M219.625,283.727c-0.702-1.245-1.403-2.495-2.104-3.75c-9.329-17.526-1.988-28.138,5.222-30.994
			c6.619-2.109,11.621,0.358,14.808,2.398c-0.57-1.88-1.33-4.387-1.899-6.268c3.554-1.364,7.146-2.669,10.771-3.913
			c7.188,21.743,13.864,42.998,19.711,62.769c-2.626,0.901-5.227,1.85-7.798,2.843c-2.206-5.876-4.475-11.896-6.794-18.032
			c-4.094,18.69-21.935,11.174-30.971-3.452C220.276,284.854,219.903,284.21,219.625,283.727"/>
		<path fill="none" stroke="#FFFFFF" stroke-width="0.25" stroke-miterlimit="10" d="M200.898,284.314
			c-8.943-9.327-15.945-2.969-16.143,2.632c-0.114,3.215,1.493,5.387,2.098,6.204C191.355,290.108,196.044,287.157,200.898,284.314
			 M186.262,307.177c-1.634-1.805-3.26-3.629-4.876-5.472c-16.312-19.357-3.239-29.186,1.156-31.737
			c6.203-3.027,18.273-5.438,29.422,12.411c0.8,1.336,1.6,2.666,2.401,3.989c14.052,24.192-1.004,33.608-13.563,30.462
			c-4.059-1.017-6.954-3.004-8.87-4.319c1.327-2.254,3.096-5.26,4.423-7.514c7.083,4.723,14.42,1.056,12.871-6.433
			c-0.429-2.072-1.43-3.99-2.028-5.136C199.781,297.768,192.771,302.373,186.262,307.177"/>
		<path fill="none" stroke="#FFFFFF" stroke-width="0.25" stroke-miterlimit="10" d="M151.944,310.787
			c0.037-0.112,3.952-10.931,14.078-1.398c7.777,7.675,15.792,14.959,23.96,21.772c1.959-1.7,3.992-3.381,6.092-5.039
			c-12.648-11.744-24.958-24.69-36.58-38.467c-2.585,2.041-5.092,4.107-7.516,6.197l4.009,4.903
			c-5.662-2.333-8.612-2.175-12.143,0.649c-0.866,0.854-2.016,2.286-2.575,4.266C144.472,305.805,148.741,308.651,151.944,310.787"
			/>
		<path fill="none" stroke="#FFFFFF" stroke-width="0.25" stroke-miterlimit="10" d="M111.659,327.715
			c-0.248-5.541,2.02-6.56,6.74-3.029c1.155,0.924,2.317,1.84,3.487,2.748c-1.349,2.102-2.601,4.206-3.75,6.31
			c3.414,2.497,6.892,4.919,10.43,7.261c1.09-1.997,2.278-3.994,3.559-5.989c11.254,7.952,23.102,15.113,35.349,21.358
			c1.16-1.807,2.416-3.611,3.761-5.409c-11.909-6.733-23.443-14.344-34.416-22.7c0.983-1.314,2.006-2.625,3.065-3.933
			c-3.328-2.65-6.604-5.369-9.824-8.152c-1.116,1.377-2.193,2.759-3.229,4.143c-1.255-1.042-2.501-2.094-3.739-3.155
			c-5.801-4.788-14.142-10.264-19.583-2.578c-0.688,1.188-2.211,4.414-1.487,8.726C104.913,324.635,108.768,326.395,111.659,327.715
			"/>
		<path fill="none" stroke="#FFFFFF" stroke-width="0.25" stroke-miterlimit="10" d="M121.053,359.585
			c-0.03-0.102-2.615-9.997,9.663-3.543c9.61,5.252,19.612,9.912,29.9,13.923c0.653-1.797,1.412-3.601,2.273-5.406
			c-16.568-7.204-32.395-16.076-47.033-26.36c-1.061,2.225-2.004,4.446-2.825,6.662l5.165,3.655
			c-5.219-1.134-7.262-0.54-8.406,2.445c-0.269,1.306-0.216,2.428,0.183,3.874C113.297,356.261,117.729,358.161,121.053,359.585"/>
		<path fill="none" stroke="#FFFFFF" stroke-width="0.25" stroke-miterlimit="10" d="M135.876,384.881
			c9.65,3.255,11.167,1.131,11.213-0.425c-0.674-4.126-9.089-7.636-11.854-8.789c-1.697-0.688-3.384-1.396-5.06-2.123
			c-13.161-5.543-11.246,0.276-10.985,0.958c0.795,2.071,3.46,5.231,11.644,8.519C132.504,383.663,134.185,384.282,135.876,384.881
			 M137.518,390.11c-1.867-0.609-3.721-1.245-5.561-1.906c-16.379-6.139-23.794-15.051-23.875-21.16
			c0.489-4.416,4.783-7.97,22.46,0.18c1.854,0.874,3.723,1.724,5.604,2.551c22.985,10.313,26.487,19.444,20.178,22.071
			C154.581,392.572,149.258,393.856,137.518,390.11"/>
		<path fill="none" stroke="#FFFFFF" stroke-width="0.25" stroke-miterlimit="10" d="M171.453,411.504
			c-1.341-1.004-2.592-2.063-3.75-3.176c-9.437-1.199-18.636-3.164-27.508-5.867c-10.993-3.596-12.354-6.523-12.508-7.334
			c0.622-0.828,2.103-0.674,6.095,0.633c9.451,3.189,19.28,5.613,29.384,7.242c-0.869-1.27-1.639-2.59-2.306-3.959
			c-16.807-3.131-32.849-8.348-47.671-15.5c0.821,1.688,1.762,3.318,2.817,4.889l5.095,2.406c-2.748-0.381-3.61,0.184-2.562,1.678
			c0.163,0.232,0.415,0.518,0.602,0.73c3.526,3.603,12.886,9.171,25.104,12.885C153.024,408.711,162.124,410.51,171.453,411.504"/>
		<path fill="none" stroke="#FFFFFF" stroke-width="0.25" stroke-miterlimit="10" d="M185.411,419.036
			c-0.785-1.27-5.181-3.381-21.661-6.242c-7.289-1.257-14.408-3.064-21.305-5.41c-1.108-0.652-2.18-1.328-3.214-2.029
			c-3.34-1.152-6.628-2.426-9.859-3.819c1.089,0.737,2.218,1.45,3.386,2.136c-3.438-1.47-6.811-3.081-10.113-4.832
			c1.056,0.621,2.142,1.223,3.257,1.803l9.175,4.543c1.321,0.615,2.651,1.207,3.992,1.776c0.748,0.345,1.507,0.681,2.279,1.009
			l8.735,3.471c1.397,0.521,2.804,1.018,4.22,1.486c-2.035-0.748-3.992-1.557-5.867-2.422c6.114,2.041,12.398,3.622,18.817,4.732
			c2.213,0.388,5.918,1.035,7.752,2.317c2.595,1.813,7.298,1.144,10.438,1.554C185.429,419.087,185.421,419.055,185.411,419.036"/>
		<path fill="none" stroke="#FFFFFF" stroke-width="0.25" stroke-miterlimit="10" d="M204.566,423.561l-2.357-0.207l-8.251-0.945
			l0.055,0.008c-5.137-1.33-10.427-1.793-15.624-2.787c1.768,0.424,3.584,0.809,5.445,1.15l-9.52-2.01
			c-4.358-1.18-10.198-2.658-14.51-3.996l0.387,0.123c2.136,0.65,3.327,0.979,6.069,1.671c1.157,0.285,2.32,0.552,3.487,0.802
			c11.604,2.416,23.573,2.732,35.011,6.102C204.696,423.485,204.629,423.549,204.566,423.561"/>
		<path fill="none" stroke="#FFFFFF" stroke-width="0.25" stroke-miterlimit="10" d="M216.696,424.195
			c-0.324-0.005-0.648-0.013-0.973-0.022l2.969,0.06C218.023,424.224,217.358,424.211,216.696,424.195"/>
		<path fill="none" stroke="#FFFFFF" stroke-width="0.25" stroke-miterlimit="10" d="M373.918,355.071
			c-1.538,1.915-3.177,3.82-4.911,5.713l1.696-1.711l5.02-5.6c2.826-3.478,6.645-8.081,9.342-11.66
			C381.793,345.85,377.309,351.134,373.918,355.071"/>
		<path fill="none" stroke="#FFFFFF" stroke-width="0.25" stroke-miterlimit="10" d="M398.346,321.353
			c3.781-6.412,7.068-13.172,6.857-13.734c-0.209,0.097-0.572,0.435-2.248,3.239C401.747,314.343,400.203,317.847,398.346,321.353
			 M399.739,312.582c1.165-1.734,2.292-3.489,3.376-5.263c6.256-10.26,6.5-10.661,7.082-10.856
			c-0.004,1.756-5.902,15.592-16.819,33.28l-0.262,0.409c-0.618,0.961-1.253,1.913-1.902,2.854c-3.775,5.376-6.21,8.01-7.441,8.053
			c-0.327-0.533-0.425-3.742,12.044-22.666c0.076,0.869,0.178,2.026,0.254,2.895c-5.185,8.053-5.581,10.185-5.607,10.53
			c0.365,0.037,0.682,0.068,3.148-3.248C396.457,323.212,398.53,317.859,399.739,312.582"/>
	</g>
	<use xlink:href="#SVGID_7_"  overflow="visible" fill="none" stroke="#FFFFFF" stroke-miterlimit="10"/>
</g>
<g enable-background="new    ">
	<defs>
		<path id="SVGID_9_" enable-background="new    " d="M410.846,144.84c1.827,4.617,4.235,10.807,5.508,15.605
			c2.505,9.444,5.964,22.085,7.062,31.793c0.542,4.791,1.358,11.178,1.579,15.995c0.292,6.386,0.183,14.917,0.128,21.309
			c-0.057,6.614-1.298,15.386-2.216,21.936c3.859-24.748,1.145-50.896-9.171-76.746c-36.047-90.339-151.466-143.35-257.771-118.06
			c106.304-25.29,221.724,27.721,257.771,118.06c10.315,25.85,13.03,51.998,9.171,76.746c-1.748,8.976-4.175,20.963-6.929,29.683
			c-2.881,9.123-6.669,19.062-11.614,29.037c-1.838,3.706-4.358,8.621-6.5,12.159c-3.371,5.57-8.118,12.847-11.856,18.177
			c-2.103,2.998-5.14,6.832-7.495,9.636c-2.959,3.522-7.089,8.061-10.21,11.441c-2.572,2.784-6.205,6.312-9.038,8.831
			c-4.322,3.843-10.231,8.809-14.798,12.359c-2.297,1.786-5.436,4.075-7.865,5.676c-9.061,5.974-9.061,5.974-14.675,9.183
			c-4.524,2.586-9.4,5.104-14.493,7.484c-5.145,2.402-5.145,2.402-14.809,6.205c-4.115,1.619-5.888,2.157-15.725,5.146
			c-2.502,0.762-5.889,1.605-8.436,2.196c-5.307,1.232-12.452,2.579-17.834,3.421c-4.178,0.652-9.793,1.235-14.01,1.553
			c-3.235,0.244-7.558,0.457-10.801,0.531c-3.206,0.072-7.482-0.029-10.688-0.043c-3.283-0.014-7.648-0.411-10.924-0.623
			c-4.167-0.27-9.699-0.982-13.823-1.639c-4.849-0.773-11.279-2.037-16.067-3.123c-7.817-1.775-18.057-4.977-25.55-7.824
			c-6.334-2.406-14.555-6.189-20.647-9.154c-3.944-1.92-8.981-4.91-12.773-7.114c-7.795-4.532-17.385-11.868-24.502-17.405
			c-7.354-5.719-16.022-14.724-22.333-21.577c-4.796-5.208-10.558-12.728-14.606-18.535c-17.639-25.305-24.862-48.037-27.582-56.595
			c-1.964-6.182-4.272-14.562-5.257-20.973c-0.736-4.794-1.974-11.155-2.453-15.982c-0.639-6.434-1.147-15.049-1.271-21.513
			c-0.181-9.443,0.854-22.063,2.26-31.403c0.737-4.895,1.999-11.381,3.111-16.205c1.02-4.421,2.727-10.23,3.991-14.589
			c1.24-4.276,3.299-9.856,4.953-13.99c1.83-4.573,4.567-10.549,6.65-15.012c2.911-6.235,7.622-14.142,11.265-19.979
			c1.992-3.191,4.837-7.331,7.087-10.347c2.965-3.974,7.004-9.219,10.284-12.937c4.312-4.889,10.406-11.1,15.055-15.67
			c2.502-2.46,6.124-5.435,8.765-7.745c2.34-2.047,5.605-4.611,8.123-6.435c4.264-3.09,10.025-7.114,14.47-9.939
			c2.186-1.389,5.138-3.186,7.414-4.422c9.221-5.011,10.185-5.535,14.499-7.487c5.783-2.615,8.685-3.929,14.815-6.208
			c2.292-0.852,5.367-1.934,7.69-2.695c2.397-0.785,5.624-1.733,8.041-2.455c4.734-1.414,5.682-1.617,17.288-4.098
			c2.677-0.572,6.287-1.134,8.996-1.521c4.189-0.599,9.802-1.2,14.019-1.554c3.234-0.271,7.561-0.542,10.807-0.531
			c6.491,0.024,15.149,0.245,21.626,0.666c4.168,0.271,9.699,1.006,13.828,1.641c4.853,0.745,11.279,2.03,16.065,3.123
			c3.871,0.883,8.955,2.371,12.773,3.457c6.261,1.781,14.447,4.763,20.387,7.426c7.936,3.557,18.376,8.689,25.806,13.21
			c7.693,4.682,17.414,11.791,24.471,17.386c7.3,5.789,16.021,14.728,22.332,21.582c4.785,5.198,10.418,12.787,14.574,18.501
			C390.588,106.348,402.134,122.816,410.846,144.84z"/>
	</defs>
	<clipPath id="SVGID_10_">
		<use xlink:href="#SVGID_9_"  overflow="visible"/>
	</clipPath>
	<g clip-path="url(#SVGID_10_)">
		<path fill="none" stroke="#FFFFFF" stroke-width="0.25" stroke-miterlimit="10" d="M274.428,45.61
			c-3.172,2.333,1.819,3.5,4.802,4.198c1.428,0.312,2.851,0.637,4.268,0.976c-0.201-1.379-0.488-2.722-0.86-4.027
			c4.019,0.854,7.993,1.819,11.918,2.895c0.402,1.413,0.713,2.866,0.931,4.359c12.816,3.842,25.104,8.814,36.659,14.837
			c0.299,2.053,0.453,4.168,0.456,6.342c-11.58-6.362-23.895-11.716-36.741-15.976c0.001,1.046-0.04,2.108-0.124,3.187
			c-3.955-1.391-7.959-2.681-12.008-3.866c0.078-0.997,0.116-1.978,0.114-2.944c-1.561-0.425-3.129-0.833-4.703-1.226
			c-11.588-2.977-16.915-5.54-17.811-8.57C261.088,42.194,261.088,42.194,274.428,45.61"/>
		<path fill="none" stroke="#FFFFFF" stroke-width="0.25" stroke-miterlimit="10" d="M287.948,37.549
			c-0.186,0.777,0.055,3.551,10.948,6.639c9.821,2.707,19.297,6.18,28.326,10.386c0.998,1.732,1.862,3.53,2.589,5.393
			c-14.952-7.258-31.13-12.616-48.083-15.916c-0.516-1.322-1.124-2.601-1.819-3.835l5.749,0.925
			c-5.843-2.086-7.862-3.111-9.394-4.769c-0.517-0.747-0.504-1.054-0.358-1.535C279.518,35.651,284.335,36.735,287.948,37.549"/>
		<path fill="none" stroke="#FFFFFF" stroke-width="0.25" stroke-miterlimit="10" d="M289.408,30.18
			c8.621,2.294,13.051,4.832,14.555,5.816c0.533,0.389,1.525,1.113,0.68,1.273c-0.932,0.178-3.635-0.53-7.071-1.473
			c-1.551-0.43-3.112-0.837-4.683-1.221c-17.145-4.235-15.066-6.068-15.041-6.085c0.992-0.665,5.593,0.306,7.105,0.625
			C286.446,29.447,287.931,29.801,289.408,30.18 M283.854,27.353c-1.582-0.394-3.173-0.758-4.774-1.091
			c-11.414-2.266-13.929-0.761-12.835,0.804c0.438,0.625,1.412,1.264,1.993,1.646c4.649,2.785,12.856,5.565,28.328,9.596
			c1.791,0.464,3.569,0.957,5.335,1.478c6.491,1.906,15.38,4.516,14.382,2.29C315.173,39.597,299.803,31.398,283.854,27.353"/>
		<path fill="none" stroke="#FFFFFF" stroke-width="0.25" stroke-miterlimit="10" d="M255.498,19.687
			c-2.27-0.38-2.681-0.407-3.249-0.443c0.741,0.451,7.393,1.624,13.825,2.758c3.561,0.63,7.081,1.437,10.552,2.418
			c4.757,1.502,11.125,3.438,15.818,5.131c-11.435-4.258-23.511-6.729-35.959-7.343c-1.7-0.623-3.467-1.194-5.3-1.711l4.218,0.185
			c-7.088-0.969-9.197-1.29-11.879-1.809c-2.094-0.427-2.35-0.555-2.774-0.768c0.196-0.208,0.326-0.346,2.768-0.082
			C247.111,18.521,251.919,19.083,255.498,19.687"/>
		<path fill="none" stroke="#FFFFFF" stroke-width="0.25" stroke-miterlimit="10" d="M219.415,16.836
			c5.355,0.087,12.497,0.281,17.844,0.603c-1.781-0.141-3.567-0.219-5.358-0.234c-1.387-0.106-2.795-0.19-4.224-0.252
			c-2.681-0.015-5.371,0.125-8.062,0.423c-2.205-0.095-4.465-0.131-6.777-0.106C215.029,17,217.222,16.855,219.415,16.836"/>
		<path fill="none" stroke="#FFFFFF" stroke-width="0.25" stroke-miterlimit="10" d="M111.918,48.754
			c0.158-0.101,0.317-0.199,0.478-0.295c1.741-1.109,3.517-2.198,5.325-3.267l-4.073,2.473L111.918,48.754"/>
		<path fill="none" stroke="#FFFFFF" stroke-width="0.25" stroke-miterlimit="10" d="M81.709,72.237l-4.968,4.829l0.202-0.203
			C77.803,76.003,79.404,74.404,81.709,72.237 M67.308,87.214c4.123-4.751,8.813-9.022,14.042-12.764
			c1.33-1.532,2.733-3.054,4.206-4.565c-3.83,2.641-7.339,5.618-10.515,8.91C72.719,81.318,69.559,84.627,67.308,87.214"/>
		<path fill="none" stroke="#FFFFFF" stroke-width="0.25" stroke-miterlimit="10" d="M55.414,102.363
			c1.141-1.485,1.709-2.138,2.027-2.328c0.021,0.019,0.047,0.044,0.068,0.063c-0.282,1.219-5.744,9.03-7.974,12.082
			C51.208,108.906,53.175,105.628,55.414,102.363 M38.295,131.501c1.61-2.735,3.342-6.609,4.743-9.457
			c-0.258,0.415-0.504,0.837-0.779,1.24c0.024-0.048,0.057-0.112,0.081-0.16c-1.673,3.294-3.904,7.686-5.577,10.98l-0.018,0.037
			C37.28,133.272,37.777,132.381,38.295,131.501 M41.816,125.625c1.033-1.67,2.106-3.318,3.219-4.945
			c6.049-8.787,12.737-17.131,18.187-26.332c1.388-2.422,1.324-2.676,1.249-2.97c-1.554,0.352-8.603,10.069-14.9,19.542l-0.8,1.259
			C45.942,116.661,43.607,121.155,41.816,125.625"/>
		<path fill="none" stroke="#FFFFFF" stroke-width="0.25" stroke-miterlimit="10" d="M29.272,159.604
			c0.103-1.49,0.273-3.006,0.514-4.548c0.146-0.934,0.316-1.872,0.51-2.811c8.355-18.992,11.482-26.098,26.544-45.698
			c-0.716,1.911-1.312,3.815-1.781,5.709c-11.289,15.796-11.964,16.742-19.287,31.17c8.472-11.852,8.979-12.561,18.033-22.134
			c-0.042,1.771,0.047,3.491,0.261,5.159C42.49,139.229,38.159,144.009,29.272,159.604"/>
		<path fill="none" stroke="#FFFFFF" stroke-width="0.25" stroke-miterlimit="10" d="M44.429,147.961
			c5.499-7.838,6.345-4.12,6.459-3.295c0.266,1.923-0.581,6.139-3.066,10.85C46.39,153.144,45.253,150.623,44.429,147.961
			 M45.997,169.641c0.983-2.198,2.005-4.385,3.066-6.559c7.646-15.848,10.159-25.23,7.91-29.529
			c-2.589-3.595-8.827,1.353-15.522,12.313c-0.746,1.255-1.475,2.517-2.188,3.785c-11.849,21.707-8.333,35.283-3.205,34.063
			c3.41-0.811,6.69-7.266,6.712-7.328c0.756-2.171-1.082-5.255-1.545-7.507c-3.946,5.808-4.911,1.305-5.008,0.772
			c-0.345-1.893-0.095-5.598,3.052-12.495C40.672,161.721,42.942,165.893,45.997,169.641"/>
		<path fill="none" stroke="#FFFFFF" stroke-width="0.25" stroke-miterlimit="10" d="M46.198,196.809
			c-1.715-1.339-3.311-2.75-4.784-4.23c7.043-22.381,17.922-44.075,32.146-63.946c0.97,0.975,2.021,1.904,3.15,2.785
			C63.114,151.843,52.789,174.027,46.198,196.809"/>
		<path fill="none" stroke="#FFFFFF" stroke-width="0.25" stroke-miterlimit="10" d="M73.066,184.361
			c-0.892,2.958-3.607,11.959-8.853,10.27c-2.357-1.233-4.5-4.755-1.319-14.532c0.608-1.758,1.236-3.511,1.884-5.259
			c4.995-12.764,9.879-10.713,10.982-7.747c1.34,3.608-0.305,9.201-1.095,11.889C74.114,180.771,73.581,182.563,73.066,184.361
			 M79.898,186.646c0.5-2.02,1.022-4.034,1.565-6.043c4.059-15.634,2.921-25.429-3.204-27.579
			c-4.738-1.039-12.108,3.262-18.582,18.45c-0.78,1.909-1.535,3.826-2.264,5.75c-8.894,24.612,3.139,33.292,11.017,29.335
			C75.791,202.861,78.883,190.656,79.898,186.646"/>
		<path fill="none" stroke="#FFFFFF" stroke-width="0.25" stroke-miterlimit="10" d="M107.312,189.267
			c-0.423,3.299-1.711,13.339-8.97,13.279c-3.299-0.501-6.861-3.403-5.1-14.381c0.234-1.286,0.476-2.57,0.725-3.852
			c3.209-14.878,10.203-14.188,12.481-10.62c2.176,3.408,1.614,8.803,1.312,11.7C107.604,186.682,107.455,187.974,107.312,189.267
			 M116.235,189.643c0.094-1.466,0.197-2.93,0.309-4.39c0.947-15.138-2.837-25.761-9.203-25.834
			c-3.189,0.278-6.099,2.38-9.433,6.815c0.432-1.899,1.007-4.432,1.439-6.332c-2.116-0.283-4.174-0.623-6.169-1.018
			c-7.153,21.8-11.805,44.677-13.729,67.582c2.949,0.583,5.994,1.08,9.132,1.488c0.373-7.021,0.984-14.043,1.828-21.034
			c5.274,12.652,17.319,10.806,23.014-3.527C115.651,197.784,116.045,192.285,116.235,189.643"/>
		<path fill="none" stroke="#FFFFFF" stroke-width="0.25" stroke-miterlimit="10" d="M131.057,180.172
			c2.146-12.648,10.298-12.158,13.725-7.09c1.403,2.075,1.606,4.034,1.704,4.976C141.209,178.973,136.06,179.675,131.057,180.172
			 M157.805,187.095c-0.358-2.407-0.703-4.807-1.033-7.198c-2.421-15.483-9.505-23.366-19.436-21.627
			c-8.895,2.276-14.571,11.883-15.575,26.356c-0.079,1.577-0.148,3.157-0.209,4.74c-0.527,28.774,22.25,27.518,31.355,18.025
			c4.406-4.592,5.036-9.709,5.374-12.458c-3.109-0.52-7.254-1.212-10.362-1.732c-2.072,8.834-11.38,10.45-15.051,4.497
			c-1.336-2.167-1.683-4.671-1.912-6.329C139.529,190.522,148.505,189.107,157.805,187.095"/>
		<path fill="none" stroke="#FFFFFF" stroke-width="0.25" stroke-miterlimit="10" d="M183.056,160.545
			c-0.479-0.046-11.685-0.995-9.132,11.387c2.436,10.256,5.076,20.715,7.895,31.27c-3.909,1.138-7.847,2.201-11.808,3.185
			c-3.786-17.489-6.959-34.763-9.43-51.332c2.814-0.699,5.612-1.45,8.391-2.252l1.597,5.644c1.195-5.64,2.729-7.848,6.563-9.452
			c2.163-0.672,3.753-0.475,4.352-0.4C181.955,152.179,182.584,156.959,183.056,160.545"/>
		<path fill="none" stroke="#FFFFFF" stroke-width="0.25" stroke-miterlimit="10" d="M211.528,126.938
			c-6.477-0.316-5.535,3.027-3.759,6.339c0.688,1.175,1.378,2.357,2.068,3.545c2.345-1.175,4.655-2.381,6.927-3.618
			c2.164,3.288,4.329,6.629,6.491,10.018c-2.459,1.338-4.959,2.644-7.498,3.916c6.417,11.316,12.861,23.114,19.226,35.199
			c-3.49,1.749-7.038,3.444-10.639,5.082c-5.796-12.357-11.601-24.46-17.317-36.111c-1.734,0.789-3.483,1.562-5.247,2.316
			c-1.631-3.646-3.25-7.251-4.856-10.81c1.629-0.698,3.245-1.411,4.847-2.14c-0.671-1.347-1.34-2.688-2.007-4.02
			c-4.37-9.243-4.01-15.198,1.1-18.204c1.259-0.602,3.884-1.504,7.321-0.791C209.188,120.444,210.525,124.155,211.528,126.938"/>
		<path fill="none" stroke="#FFFFFF" stroke-width="0.25" stroke-miterlimit="10" d="M257.535,141.22
			c5.101,6.362,5.4,11.29,0.889,14.645c-4.803,2.791-9.71,0.905-14.587-5.604c-1.057-1.483-2.117-2.958-3.179-4.424
			c-8.251-11.952-0.492-15.828,4.5-14.777c4.176,0.879,7.193,4.204,8.813,5.989C255.164,138.43,256.352,139.82,257.535,141.22
			 M265.431,135.677c-1.394-1.5-2.794-2.986-4.202-4.458c-12.649-12.72-23.912-12.415-30.235-7.887
			c-3.161,2.668-9.402,10.664,0.891,27.249c1.088,1.683,2.175,3.376,3.26,5.079c15.483,23.294,35.621,12.372,37.996-0.092
			C274.941,146.123,267.783,138.26,265.431,135.677"/>
		<path fill="none" stroke="#FFFFFF" stroke-width="0.25" stroke-miterlimit="10" d="M271.222,107.431
			c-0.405,0.125-9.794,3.173-0.226,11.91c8.172,7.148,16.122,14.731,23.764,22.672c-2.453,2.254-5.004,4.485-7.648,6.688
			c-11.968-13.458-24.672-26.038-37.755-37.379c1.876-1.563,3.691-3.146,5.44-4.743l5.021,3.627
			c-2.731-4.726-2.935-6.823-0.905-9.35c1.055-0.974,2.09-1.531,3.461-1.862C265.028,101.526,268.567,104.9,271.222,107.431"/>
		<path fill="none" stroke="#FFFFFF" stroke-width="0.25" stroke-miterlimit="10" d="M324.816,104.32
			c-1.208,2.365-2.547,4.732-4.012,7.096c-8.446-6.4-17.283-12.346-26.422-17.78c-14.075-7.68-12.759,1.944-12.732,2.049
			c0.839,3.21,3.916,5.379,5.395,6.421c9.121,6.13,17.948,12.771,26.388,19.854c-1.828,2.348-3.772,4.687-5.827,7.011
			c-13.4-12.08-27.772-23.054-42.713-32.607c1.458-1.649,2.843-3.308,4.15-4.973l5.326,2.852c-4.369-5.74-2.862-8.282-2.219-9.367
			c2.948-3.835,12.562-4.253,25.232,2.368C306.884,92.399,316.061,98.11,324.816,104.32"/>
		<path fill="none" stroke="#FFFFFF" stroke-width="0.25" stroke-miterlimit="10" d="M331.452,82.861
			c2.228,6.316-0.036,14.539-12.475,8.445c-0.959-0.47-2.199-1.171-3.129-1.696c-7.661-4.491-15.589-8.604-23.729-12.311
			c-0.451,1.133-0.94,2.269-1.468,3.405c-3.829-1.844-7.705-3.598-11.621-5.258c0.487-1.05,0.94-2.099,1.356-3.146
			c-4.292-1.707-8.633-3.301-13.017-4.779c0.645-1.621,1.195-3.237,1.646-4.845c4.442,1.307,8.84,2.734,13.188,4.277
			c0.443-1.582,0.8-3.157,1.067-4.724c4.036,1.289,8.028,2.68,11.97,4.169c-0.289,1.695-0.674,3.4-1.155,5.113
			c7.558,3.121,14.931,6.599,22.079,10.413c4.724,2.45,6.399,1.35,4.979-3.269c-0.054-0.175-0.137-0.406-0.195-0.58
			c2.011,0.784,4.693,1.83,6.705,2.614C328.926,81.401,330.193,82.125,331.452,82.861"/>
		<path fill="none" stroke="#FFFFFF" stroke-width="0.25" stroke-miterlimit="10" d="M411.84,154.01
			c-5.102-12.751-5.209-16.227-4.844-16.438c0.527,0.195,1.529,2.285,2.345,4.084C410.645,145.565,411.486,149.688,411.84,154.01
			 M410.846,144.84l-6.232-14.064l-0.019-0.037c-2.511-5.052-2.999-5.269-3.471-5.479c-0.286,0.494-0.393,0.963,0.548,5.508
			c2.746,12.583,7.441,24.615,11.671,34.726c0.373,0.888,0.738,1.78,1.097,2.676c0.196,0.494,0.391,0.988,0.582,1.482
			c2.985,7.683,4.886,12.385,6.109,12.905c0.334-0.51,0.503-1.296-0.59-6.28c-1.696-6.414-3.913-14.985-5.955-21.297l0.034,0.103
			c1.151,3.425,3.818,11.632,3.709,13.857c-0.562-0.403-0.678-0.487-2.48-5.011c-0.393-4.908-1.414-9.558-3.025-13.934
			L410.846,144.84"/>
		<path fill="none" stroke="#FFFFFF" stroke-width="0.25" stroke-miterlimit="10" d="M31.896,296.339
			c-0.017-0.042-0.034-0.084-0.05-0.127c-0.347-0.869-0.685-1.74-1.015-2.612c-5.042-13.567-7.83-25.02-8.795-29.314
			c5.471,20.879,5.576,21.279,9.793,31.884L31.896,296.339"/>
		<path fill="none" stroke="#FFFFFF" stroke-width="0.25" stroke-miterlimit="10" d="M39.602,301.22
			c-3.045-4.323-3.856-4.528-4.341-4.65c-0.083,0.059-0.192,0.137-0.275,0.196c-0.12,0.769-0.2,1.276,1.137,5.183
			c0.688,1.942,1.414,3.875,2.181,5.797c3.045,7.63,6.625,14.861,10.691,21.679c-1.006-1.36-1.941-2.757-2.803-4.191l-4.955-8.776
			c-2.592-4.878-4.942-9.94-7.033-15.18c-3.19-7.995-5.672-16.142-7.474-24.381c1.111,2.078,2.371,4.083,3.772,6.013l1.532,5.901
			c-0.037-1.424-0.106-4.075,2.202-2.128c0.244,0.206,0.537,0.517,0.767,0.738C37.908,290.563,37.908,290.563,39.602,301.22"/>
		<path fill="none" stroke="#FFFFFF" stroke-width="0.25" stroke-miterlimit="10" d="M67.998,301.008
			c-1.772-1.461-7.166-5.909-6.377,0.165c0.048,0.372,0.155,0.862,0.222,1.231c0.3,1.366,0.615,2.728,0.944,4.084
			c2.584,1.046,5.271,2.015,8.057,2.906c0.969,3.896,2.05,7.749,3.247,11.553c-2.806-0.898-5.513-1.874-8.116-2.928
			c1.387,4.454,2.939,8.843,4.661,13.158c3.045,7.63,6.522,14.787,10.388,21.459c-2.921-1.182-5.709-2.461-8.36-3.835
			c-3.918-6.696-7.423-13.865-10.467-21.495c-1.722-4.315-3.266-8.7-4.635-13.146c-1.562-0.81-3.076-1.652-4.541-2.527
			c-1.161-3.789-2.191-7.619-3.094-11.485c1.454,0.868,2.957,1.705,4.508,2.509c-0.352-1.486-0.685-2.979-1-4.476
			c-1.935-10.411,0.474-14.351,7.364-12.045c1.053,0.426,4.768,2.09,8.338,5.634C68.794,294.541,68.339,298.236,67.998,301.008"/>
		<path fill="none" stroke="#FFFFFF" stroke-width="0.25" stroke-miterlimit="10" d="M103.216,326.786
			c-1.443-0.632-13.984-5.844-10.188,5.662c0.71,1.954,1.449,3.893,2.216,5.815c3.045,7.63,6.444,14.764,10.158,21.393
			c-3.542-0.678-6.969-1.46-10.274-2.342c-3.778-6.643-7.21-13.785-10.255-21.415c-3.19-7.996-5.85-16.264-7.995-24.738
			c3.09,0.826,6.288,1.562,9.587,2.208l1.999,5.871c1.267-4.478,3.174-5.736,8.164-5.386c2.898,0.412,5.08,1.389,5.883,1.789
			C102.721,318.987,103.004,323.443,103.216,326.786"/>
		<path fill="none" stroke="#FFFFFF" stroke-width="0.25" stroke-miterlimit="10" d="M146.708,343.046
			c0.966,2.594,3.906,10.486-6.2,10.995c-6.863-0.191-11.918-3.811-15.024-10.756c-0.253-0.618-0.504-1.24-0.753-1.865
			c-0.397-0.997-0.789-1.998-1.175-3.003c-4.604-13.298,8.337-11.998,12.9-9.774c5.429,2.646,7.241,6.959,8.323,9.535
			c0.388,1.005,0.781,2.006,1.178,3.003C146.206,341.806,146.456,342.427,146.708,343.046 M160.393,342.222
			c-0.283-0.694-0.564-1.392-0.844-2.094c-0.439-1.101-0.874-2.207-1.302-3.318c-8.261-19.93-26.229-21.494-33.571-21.241
			c-7.599,0.644-19.433,4.332-13.308,21.795c0.423,1.111,0.854,2.217,1.293,3.318c0.28,0.703,0.563,1.4,0.848,2.094
			c10.955,24.806,42.895,26.613,48.087,12.357C163.245,350.601,161.819,345.853,160.393,342.222"/>
		<path fill="none" stroke="#FFFFFF" stroke-width="0.25" stroke-miterlimit="10" d="M230.565,349.349
			c-4.94,1.425-9.917,2.755-14.922,3.983c-3.026-6.667-6.07-13.822-9.115-21.452c-0.633-1.587-1.262-3.184-1.887-4.79
			c-6.603-13.92-21.549-6.104-23.023-0.797c-0.513,1.849,0.031,3.524,0.355,4.525c0.746,1.954,1.502,3.892,2.27,5.814
			c3.044,7.63,6.16,14.769,9.324,21.408c-4.839,0.873-9.607,1.625-14.297,2.259c-3.253-6.624-6.415-13.756-9.459-21.386
			c-3.19-7.996-6.147-16.274-8.868-24.769c4.386-0.593,8.84-1.29,13.357-2.091l2.432,5.443c3.352-7.444,10.623-9.25,13.359-9.929
			c10.27-2.037,23.393,0.842,29.424,15.035c0.689,1.763,1.382,3.516,2.076,5.256C224.636,335.489,227.632,342.656,230.565,349.349"
			/>
		<path fill="none" stroke="#FFFFFF" stroke-width="0.25" stroke-miterlimit="10" d="M274.024,333.316
			c-3.706,3.233-25.635,16.962-33.559-0.033c-1.329-3.248-2.678-6.587-4.047-10.018c-1.722-4.315-3.443-8.696-5.162-13.134
			c-2.863,0.948-5.741,1.866-8.633,2.751c-1.451-3.791-2.895-7.624-4.328-11.494c2.871-0.879,5.729-1.79,8.571-2.731
			c-1.581-4.181-3.157-8.404-4.727-12.659c4.793-1.588,9.542-3.264,14.24-5.022c1.642,4.23,3.279,8.43,4.909,12.594
			c4.24-1.587,8.438-3.24,12.59-4.956c1.545,3.83,3.075,7.632,4.588,11.401c-4.182,1.728-8.411,3.394-12.682,4.992
			c1.748,4.427,3.484,8.803,5.206,13.118c1.113,2.789,2.207,5.52,3.281,8.192c0.73,1.653,2.953,6.683,13.667-1.547
			c1.984,2.421,4.629,5.648,6.613,8.069C274.393,332.983,274.185,333.177,274.024,333.316"/>
		<path fill="none" stroke="#FFFFFF" stroke-width="0.25" stroke-miterlimit="10" d="M281.995,297.846
			c-1.726-13.563,12.892-18.483,19.062-13.791c1.319,1.003,1.795,2.036,2.144,2.79C296.338,290.678,289.259,294.353,281.995,297.846
			 M319.436,289.547c-0.496-1.274-1.001-2.558-1.518-3.852c-0.347-0.869-0.697-1.739-1.05-2.61
			c-6.272-14.244-18.698-17.588-34.092-9.175c-7.751,4.706-19.759,15.318-13.081,33.518c0.36,0.9,0.719,1.798,1.077,2.695
			c0.197,0.494,0.393,0.985,0.589,1.476c11.159,25.787,41.985,8.859,48.244-6.115c1.586-3.795,1.593-6.918,1.597-8.784
			c-3.779,1.056-8.817,2.463-12.595,3.519c-0.769,9.56-14.796,17.456-21.502,9.482c-0.447-0.532-0.952-1.314-1.326-1.9
			C297.525,302.159,308.791,296.041,319.436,289.547"/>
		<path fill="none" stroke="#FFFFFF" stroke-width="0.25" stroke-miterlimit="10" d="M371.877,273.794
			c-3.146,2.827-6.414,5.624-9.799,8.385c-2.113-7.111-4.686-14.495-7.73-22.125c-0.633-1.586-1.283-3.173-1.947-4.76
			c-6.951-13.901-16.011,1.452-16.646,3.277c-1.324,3.804-0.373,6.379,0.195,7.917c0.808,1.928,1.596,3.853,2.363,5.775
			c3.044,7.63,5.667,14.975,7.88,22.011c-3.714,2.644-7.533,5.242-11.447,7.791c-2.284-6.988-4.944-14.307-7.989-21.937
			c-3.19-7.996-6.698-16.068-10.481-24.165c3.661-2.383,7.237-4.81,10.723-7.277l2.918,4.984c1.414-9.226,6.513-13.414,8.433-14.99
			c6.994-5.138,17.409-6.206,23.743,7.691c0.737,1.738,1.452,3.478,2.147,5.219C367.285,259.22,369.825,266.63,371.877,273.794"/>
		<path fill="none" stroke="#FFFFFF" stroke-width="0.25" stroke-miterlimit="10" d="M391.928,223.458
			c2.773,7.667,2.173,14.136-1.785,19.227c-6.256,6.799-9.622-1.226-10.89-4.247c-0.144-0.365-0.288-0.73-0.435-1.097
			c-0.296-0.742-0.596-1.483-0.9-2.224c-5.889-15.279,2.789-23.895,7.909-21.402c2.433,1.184,4.007,4.722,4.765,6.423
			c0.305,0.74,0.605,1.48,0.902,2.222C391.64,222.727,391.784,223.092,391.928,223.458 M405.157,235.92
			c-1.845-7.4-4.278-14.933-7.323-22.563c-5.396-13.524-12.412-26.599-20.769-39.043c-1.902,2.921-3.957,5.837-6.157,8.742
			c4.434,6.791,8.496,13.741,12.143,20.821c-12.908-3.993-22.786,16.975-13.912,39.693c0.347,0.841,0.688,1.682,1.023,2.524
			c0.178,0.443,0.353,0.886,0.525,1.328c8.213,19.86,19.756,13.377,24.594,1.304c1.605-4.007,2.034-7.486,2.265-9.355
			c0.526,1.472,1.228,3.435,1.753,4.906C401.385,241.5,403.34,238.712,405.157,235.92"/>
		<g>
			<path fill="none" stroke="#FFFFFF" stroke-width="0.25" stroke-miterlimit="10" d="M135.075,405.184l-9.175-4.543
				c1.096,0.57,2.221,1.122,3.373,1.654C131.184,403.309,133.119,404.272,135.075,405.184"/>
			<path fill="none" stroke="#FFFFFF" stroke-width="0.25" stroke-miterlimit="10" d="M150.082,411.44l-8.735-3.471
				c1.269,0.537,2.569,1.052,3.901,1.541C146.846,410.19,148.457,410.833,150.082,411.44"/>
		</g>
		<path fill="none" stroke="#FFFFFF" stroke-width="0.25" stroke-miterlimit="10" d="M170.615,417.833
			c-1.412-0.404-2.307-0.686-2.705-0.928c0.003-0.027,0.007-0.064,0.01-0.091c1.124-0.151,10.083,1.831,15.306,3.288
			C178.809,419.543,174.599,418.784,170.615,417.833 M203.156,423.396c-3.006-0.429-7.04-0.8-10.058-1.131
			c0.759,0.132,0.759,0.132,9.11,1.089l2.197,0.195l-0.187-0.02C203.9,423.493,203.475,423.442,203.156,423.396 M198.229,422.545
			c-1.477-0.291-2.948-0.629-4.414-1.012c-23.281-6.152-23.281-6.152-32.35-7.762c-4.558-0.773-4.797-0.617-5.05-0.451
			c1.542,1.406,17.736,5.41,17.898,5.449l9.52,2.01C188.371,421.616,193.179,422.208,198.229,422.545"/>
		<path fill="none" stroke="#FFFFFF" stroke-width="0.25" stroke-miterlimit="10" d="M244.821,422.37
			c-2.863,0.418-5.68,0.766-8.447,1.043c-4.652-0.149-9.357-1.127-14.068-2.917c-7.616-2.646-15.396-1.396-16.588-0.499
			c-0.007,0.098-0.016,0.23-0.022,0.33c0.46,0.434,0.53,0.5,1.648,0.902c5.631,1.867,11.321,2.858,17.009,2.957
			c-1.917,0.052-3.804,0.066-5.66,0.045l-2.969-0.059c-9.882-0.302-19.673-2.844-29.112-7.555c3.069,0.079,6.207,0.081,9.41,0.005
			l3.456,1.541c0.39-1.349,2.564-2.075,7.505-2.507c8.961-0.606,18.858,0.766,25.213,3.498
			C236.466,421.067,240.688,422.144,244.821,422.37"/>
		<path fill="none" stroke="#FFFFFF" stroke-width="0.25" stroke-miterlimit="10" d="M269.323,412.78
			c0.767,0.721,2.363,2.223-5.182,4.247c-8.395,2.046-11.309,0.735-12.406,0.241c-0.394-0.201-0.789-0.414-1.186-0.639
			c-4.228-2.713,3.793-4.807,6.353-5.383c3.743-0.844,8.789-1.389,11.576,0.807C268.762,412.307,269.044,412.549,269.323,412.78
			 M283.328,413.067c-3.171-1.996-7.663-8.131-13.255-18.127c-4.131,1.381-8.3,2.686-12.5,3.91c2.257,3.34,4.414,6.21,6.46,8.604
			c-13.905-1.03-30.051,4.967-26.176,9.722c0.557,0.684,1.301,1.062,2.089,1.462c0.538,0.248,1.073,0.48,1.607,0.697
			c8.757,3.205,27.194-0.835,31.846-4.033c0.483,0.113,1.127,0.266,1.61,0.379C277.803,414.858,280.578,413.987,283.328,413.067"/>
		<path fill="none" stroke="#FFFFFF" stroke-width="0.25" stroke-miterlimit="10" d="M327.587,388.331
			c-0.332,1.035-1.211,3.781-8.276,7.574c-6.836,3.457-6.987,1.4-7.06,0.413c0-0.337-0.005-0.687-0.015-1.044
			c0.091-2.334,1.973-4.685,5.591-6.986c4.794-3.049,8.848-4.217,9.858-2.839c0.361,0.491,0.275,1.071,0.184,1.684
			C327.782,387.542,327.688,387.942,327.587,388.331 M332.301,390.305c4.661-5.637,6.913-14.905,6.611-27.36
			c-3.431,2.111-6.939,4.175-10.519,6.189c0.382,4.125,0.488,7.857,0.321,11.179c-9.11-0.654-27.366,11.563-26.212,19.321
			c0.083,0.386,0.161,0.757,0.231,1.114c1.668,6.102,16.936-2.482,23.083-7.486c-0.155,0.352-0.362,0.822-0.518,1.174
			C327.679,393.09,330.014,391.711,332.301,390.305"/>
		<path fill="none" stroke="#FFFFFF" stroke-width="0.25" stroke-miterlimit="10" d="M351.756,370.701
			c4.473-7.472,12.348-12.7,12.756-10.889c0.087,0.386-0.176,0.944-0.35,1.313C360.24,364.389,356.098,367.587,351.756,370.701
			 M367.879,360.377c0.748-1.107,1.463-2.246,2.145-3.416c3.287-5.882,1.724-6.605-0.166-6.177
			c-2.813,0.638-7.699,4.472-9.305,5.732c-8.746,7.104-14.82,14.46-17.563,21.276c-0.226,0.589-0.463,1.163-0.712,1.723
			c-0.718,1.681-1.919,4.493,0.936,3.257c3.115-1.348,14.199-9.938,21.793-18.628c-1.426,1.078-3.326,2.516-4.752,3.595
			c-3.206,3.731-9.655,9.377-10.96,8.776c-0.067-0.431-0.079-0.497,0.244-1.33C356.171,370.432,362.316,365.473,367.879,360.377"/>
		<path fill="none" stroke="#FFFFFF" stroke-width="0.25" stroke-miterlimit="10" d="M385.064,341.813
			c-2.778,3.518-6.437,8.247-9.342,11.66l-5.02,5.6c4.334-5.757,6.313-8.385,6.612-16.174c2.595-2.431,5.074-4.888,7.431-7.363
			c-2.133,8.177-2.261,8.666-6.331,14.667c9.703-13.371,10.284-14.172,16.816-26.871c1.927-2.509,3.72-5.029,5.372-7.554
			C393.148,329.941,391.146,333.748,385.064,341.813"/>
		<path fill="none" stroke="#FFFFFF" stroke-width="0.25" stroke-miterlimit="10" d="M393.378,329.743
			c8.755-14.816,9.88-16.719,15.591-29.581l-0.334,0.769l-0.412,0.922C406.34,305.964,399.573,319.912,393.378,329.743"/>
	</g>
	<use xlink:href="#SVGID_9_"  overflow="visible" fill="none" stroke="#FFFFFF" stroke-miterlimit="10"/>
</g>
<g enable-background="new    ">
	<defs>
		<path id="SVGID_11_" enable-background="new    " d="M287.317,383.163c-0.08-0.199-0.415-0.279-0.842-0.178
			c-0.52,0.123-0.98,0.469-1.027,0.771c-0.008,0.055-0.003,0.104,0.014,0.146c-43.37-108.689-86.734-217.365-130.104-326.055
			c-0.017-0.043-0.022-0.093-0.014-0.146c0.047-0.303,0.507-0.648,1.027-0.772c0.427-0.102,0.763-0.021,0.842,0.178
			C200.583,165.797,243.947,274.473,287.317,383.163z"/>
	</defs>
	<clipPath id="SVGID_12_">
		<use xlink:href="#SVGID_11_"  overflow="visible"/>
	</clipPath>
</g>
<g enable-background="new    ">
	<defs>
		<path id="SVGID_13_" enable-background="new    " d="M157.213,57.107c43.37,108.69,86.734,217.366,130.104,326.056
			c0.017,0.043,0.022,0.092,0.014,0.146L157.228,57.253C157.236,57.199,157.23,57.15,157.213,57.107z"/>
	</defs>
	<clipPath id="SVGID_14_">
		<use xlink:href="#SVGID_13_"  overflow="visible"/>
	</clipPath>
</g>
<g enable-background="new    ">
	<defs>
		<path id="SVGID_15_" enable-background="new    " d="M285.461,383.903c-43.37-108.689-86.734-217.365-130.104-326.055
			c0.08,0.2,0.415,0.279,0.842,0.178c0.52-0.124,0.98-0.469,1.027-0.772l130.104,326.056c-0.047,0.303-0.507,0.648-1.027,0.772
			C285.876,384.183,285.541,384.104,285.461,383.903z"/>
	</defs>
	<clipPath id="SVGID_16_">
		<use xlink:href="#SVGID_15_"  overflow="visible"/>
	</clipPath>
</g>
<g enable-background="new    ">
	<defs>
		<path id="SVGID_17_" enable-background="new    " d="M409.918,145.211c2.494,6.011,5.454,14.215,6.956,20.547
			c1.124,4.738,2.877,11.001,3.745,15.792c1.154,6.373,2.263,14.944,2.99,21.379c0.581,5.137,0.913,12.049,0.733,17.215
			c-0.328,9.377-1.335,21.862-2.424,31.181c3.841-24.626,1.139-50.646-9.125-76.368C376.978,85.197,262.41,32.46,157.228,57.253
			c0.047-0.303-0.336-0.448-0.856-0.324c-0.52,0.124-0.98,0.47-1.027,0.772c-0.047,0.303,0.336,0.448,0.856,0.324
			c0.52-0.124,0.98-0.469,1.027-0.772C262.41,32.46,376.978,85.197,412.794,174.957c10.264,25.723,12.966,51.741,9.125,76.368
			c-0.854,5.264-2.262,12.242-3.505,17.428c-1.048,4.374-2.819,10.108-4.126,14.412c-2.117,6.969-5.813,15.991-8.903,22.585
			c-3.473,7.409-8.66,17.054-13.135,23.903c-2.775,4.247-6.654,9.796-9.708,13.847c-2.536,3.364-6.056,7.759-8.914,10.854
			c-2.22,2.403-5.077,5.709-7.427,7.987c-2.283,2.211-5.272,5.217-7.613,7.367c-2.337,2.146-5.553,4.9-7.975,6.95
			c-6.705,5.677-16.819,12.745-22.202,15.981c-4.213,2.533-9.882,5.834-14.25,8.09c-6.246,3.228-11.739,5.609-14.458,6.743
			c-10.524,4.386-20.525,7.644-31.473,10.249c-3.891,0.926-9.126,1.96-13.064,2.662c-2.946,0.527-6.895,1.141-9.873,1.432
			c-5.837,0.569-13.639,1.151-19.499,1.384c-3.774,0.149-8.819,0.083-12.591-0.11c-4.462-0.229-10.406-0.666-14.849-1.139
			c-3.567-0.381-8.312-1.03-11.835-1.701c-5.921-1.127-13.766-2.895-19.6-4.408c-3.87-1.006-8.975-2.58-12.72-3.98
			c-8.482-3.169-17.253-6.446-25.646-10.967c-3.839-2.068-9.011-4.748-12.699-7.074c-5.614-3.541-12.963-8.486-18.277-12.462
			c-7.371-5.513-16.481-13.825-22.883-20.438c-6.101-6.302-13.6-15.341-18.676-22.494c-5.593-7.882-12.287-18.964-16.566-27.63
			c-2.202-4.458-4.911-10.517-6.751-15.135c-1.827-4.583-3.883-10.839-5.463-15.513c-2.092-6.188-4.194-14.682-5.267-21.125
			c-1.575-9.462-3.303-22.188-3.539-31.776c-0.163-6.625-0.184-15.496,0.515-22.087c0.493-4.648,1.063-10.861,1.809-15.477
			c0.851-5.265,2.085-12.288,3.505-17.429c2.369-8.581,5.68-20.035,9.194-28.214c2.77-6.447,6.85-14.875,10.083-21.103
			c1.863-3.588,4.732-8.163,6.887-11.583c1.34-2.127,8.535-13.313,18.621-24.7c9.983-11.27,17.706-17.84,23.014-22.303
			c7.353-6.183,16.996-12.831,22.203-15.982c5.119-3.098,8.208-4.969,14.267-8.099c4.246-2.194,10.063-4.807,14.438-6.733
			c5.45-2.399,16.938-6.447,23.156-8.086c3.739-0.986,8.717-2.355,12.509-3.114c6.312-1.264,11.763-2.355,18.749-3.144
			c13.775-1.555,21.25-1.562,32.089-1.273c4.466,0.119,10.406,0.667,14.848,1.139c3.567,0.379,8.302,1.085,11.835,1.701
			c5.938,1.033,13.82,2.701,19.6,4.409c6.617,1.955,15.679,4.632,25.413,8.888c7.921,3.464,18.182,8.781,25.653,13.134
			c5.734,3.341,13.12,8.287,18.278,12.462c7.155,5.791,16.481,13.825,22.884,20.439c6.1,6.302,13.379,15.503,18.676,22.494
			c5.837,7.704,11.938,19.146,16.566,27.63C405.583,134.54,408.03,140.66,409.918,145.211z"/>
	</defs>
	<clipPath id="SVGID_18_">
		<use xlink:href="#SVGID_17_"  overflow="visible"/>
	</clipPath>
</g>
<g enable-background="new    ">
	<defs>
		<path id="SVGID_19_" enable-background="new    " d="M174.442,23.286c2.633-0.596,6.142-1.41,8.799-1.891
			c3.965-0.717,9.258-1.687,13.266-2.097c5.824-0.596,13.611-1.194,19.459-1.467c3.459-0.161,8.083-0.09,11.544,0.02
			c12.598,0.398,22.032,1.824,24.624,2.251c4.823,0.796,11.228,2.021,15.993,3.108c3.848,0.878,8.891,2.396,12.698,3.437
			c6.255,1.709,14.389,4.753,20.31,7.396c7.894,3.525,18.2,8.748,25.653,13.129c3.821,2.246,8.745,5.531,12.358,8.098
			c3.708,2.634,8.427,6.452,12.033,9.224c3.651,2.809,8.06,7.113,11.448,10.235c5.115,4.714,11.434,11.567,15.733,17.037
			c5.913,7.52,13.228,18.008,18.23,26.161c4.764,7.764,9.661,18.944,13.325,27.284c1.985,4.518,3.905,10.832,5.476,15.51
			c2.051,6.107,4.158,14.476,5.226,20.829c1.589,9.461,2.92,22.205,3.609,31.774c0.457,6.342-0.015,14.844-0.4,21.19
			c-0.309,5.066-1.144,11.793-1.909,16.811c-9.561,61.31-59.669,113.991-134.588,131.984c0.047-0.303-0.336-0.447-0.856-0.324
			s-0.98,0.469-1.027,0.771c-0.047,0.304,0.336,0.449,0.856,0.325s0.98-0.47,1.027-0.772
			c74.919-17.993,125.027-70.674,134.588-131.984c-1.738,8.924-4.149,20.843-6.887,29.512c-2.836,8.982-6.59,18.885-11.562,28.913
			c-1.827,3.685-4.334,8.573-6.463,12.092c-3.356,5.546-8.082,12.792-11.805,18.099c-2.092,2.982-5.112,6.796-7.455,9.586
			c-2.945,3.507-7.057,8.026-10.164,11.39c-2.561,2.772-6.176,6.283-8.996,8.79c-4.301,3.824-10.18,8.766-14.724,12.297
			c-2.287,1.777-5.41,4.055-7.828,5.649c-9.016,5.943-9.016,5.943-14.604,9.138c-4.501,2.574-9.354,5.08-14.422,7.447
			c-5.119,2.391-5.119,2.391-14.737,6.175c-4.095,1.61-5.859,2.147-15.648,5.122c-2.49,0.758-5.859,1.597-8.395,2.186
			c-5.28,1.227-12.39,2.566-17.746,3.403c-4.157,0.649-9.745,1.229-13.941,1.546c-3.22,0.242-7.521,0.455-10.75,0.528
			c-3.189,0.072-7.443-0.028-10.633-0.042c-3.266-0.014-7.609-0.41-10.868-0.62c-4.147-0.269-9.652-0.978-13.756-1.632
			c-4.827-0.768-11.227-2.025-15.994-3.107c-7.774-1.766-17.958-4.948-25.41-7.779c-6.304-2.396-14.487-6.16-20.551-9.111
			c-3.921-1.908-8.93-4.879-12.7-7.071c-8.38-4.87-12.092-7.757-24.391-17.321c-7.311-5.686-15.931-14.635-22.205-21.447
			c-4.779-5.188-10.521-12.679-14.556-18.465c-2.754-3.95-6.367-9.28-8.65-13.52c-4.319-8.021-10.003-18.802-13.325-27.284
			c-1.8-4.594-4.211-10.74-5.475-15.51c-1.251-4.722-3.107-10.971-4.165-15.739c-1.057-4.765-2.316-11.164-2.88-16.011
			c-0.742-6.368-1.761-14.882-1.804-21.293c-0.063-9.417,0.327-22.007,1.454-31.356c0.774-6.419,2.193-14.951,3.793-21.216
			c2.21-8.653,5.696-20.07,8.883-28.412c1.757-4.599,4.499-10.573,6.643-15.004c1.791-3.703,4.478-8.49,6.463-12.092
			c3.129-5.678,8.005-12.847,11.804-18.1c2.135-2.952,5.112-6.796,7.455-9.585c2.946-3.506,7.031-8.05,10.164-11.39
			c2.187-2.331,5.247-5.304,7.586-7.482c2.555-2.38,6.083-5.42,8.722-7.708c3.261-2.826,10.949-8.699,15.24-11.545
			c2.247-1.491,5.207-3.538,7.521-4.922c2.122-1.269,4.932-2.995,7.082-4.216c2.157-1.226,5.053-2.827,7.271-3.938
			c4.272-2.142,10.066-4.801,14.437-6.734c2.199-0.973,5.197-2.116,7.452-2.95c2.28-0.844,5.338-1.924,7.649-2.681
			c2.384-0.78,5.598-1.712,7.998-2.442C168.538,24.714,171.904,23.861,174.442,23.286z"/>
	</defs>
	<clipPath id="SVGID_20_">
		<use xlink:href="#SVGID_19_"  overflow="visible"/>
	</clipPath>
</g>
</svg>
